<mxfile host="app.diagrams.net" modified="2024-01-19T13:11:13.081Z" agent="Mozilla/5.0 (Macintosh; Intel Mac OS X 10_15_7) AppleWebKit/537.36 (KHTML, like Gecko) Chrome/118.0.0.0 YaBrowser/23.11.0.0 Safari/537.36" etag="imbHxqnOwL_vKiwExhqZ" version="22.1.18" type="device" pages="11">
  <diagram name="Структура ПО" id="9JUjd3AypUvy5Y-n2l-Y">
    <mxGraphModel dx="849" dy="452" grid="1" gridSize="10" guides="1" tooltips="1" connect="1" arrows="1" fold="1" page="1" pageScale="1" pageWidth="850" pageHeight="1100" math="0" shadow="0">
      <root>
        <mxCell id="0" />
        <mxCell id="1" parent="0" />
        <mxCell id="A8Zj77dTHGXYU6e9k1eK-1" value="cli.c" style="rounded=0;whiteSpace=wrap;html=1;" parent="1" vertex="1">
          <mxGeometry x="370" y="300" width="120" height="60" as="geometry" />
        </mxCell>
        <mxCell id="A8Zj77dTHGXYU6e9k1eK-2" value="core_module.h" style="rounded=0;whiteSpace=wrap;html=1;" parent="1" vertex="1">
          <mxGeometry x="180" y="420" width="120" height="60" as="geometry" />
        </mxCell>
        <mxCell id="A8Zj77dTHGXYU6e9k1eK-3" value="core_module.c" style="rounded=0;whiteSpace=wrap;html=1;" parent="1" vertex="1">
          <mxGeometry x="370" y="420" width="120" height="60" as="geometry" />
        </mxCell>
        <mxCell id="A8Zj77dTHGXYU6e9k1eK-4" value="" style="endArrow=none;html=1;" parent="1" edge="1">
          <mxGeometry width="50" height="50" relative="1" as="geometry">
            <mxPoint x="160" y="390" as="sourcePoint" />
            <mxPoint x="650" y="390" as="targetPoint" />
          </mxGeometry>
        </mxCell>
        <mxCell id="A8Zj77dTHGXYU6e9k1eK-5" value="" style="endArrow=classic;html=1;exitX=1;exitY=0.5;exitDx=0;exitDy=0;entryX=0;entryY=0.5;entryDx=0;entryDy=0;dashed=1;" parent="1" source="A8Zj77dTHGXYU6e9k1eK-2" target="A8Zj77dTHGXYU6e9k1eK-1" edge="1">
          <mxGeometry width="50" height="50" relative="1" as="geometry">
            <mxPoint x="390" y="360" as="sourcePoint" />
            <mxPoint x="440" y="310" as="targetPoint" />
          </mxGeometry>
        </mxCell>
        <mxCell id="A8Zj77dTHGXYU6e9k1eK-6" value="" style="endArrow=classic;html=1;exitX=1;exitY=0.5;exitDx=0;exitDy=0;entryX=0;entryY=0.5;entryDx=0;entryDy=0;dashed=1;" parent="1" source="A8Zj77dTHGXYU6e9k1eK-2" target="A8Zj77dTHGXYU6e9k1eK-3" edge="1">
          <mxGeometry width="50" height="50" relative="1" as="geometry">
            <mxPoint x="310" y="340.0000000000001" as="sourcePoint" />
            <mxPoint x="360" y="340.0000000000001" as="targetPoint" />
          </mxGeometry>
        </mxCell>
        <mxCell id="A8Zj77dTHGXYU6e9k1eK-7" value="" style="endArrow=classic;html=1;entryX=0.25;entryY=0;entryDx=0;entryDy=0;exitX=0.25;exitY=1;exitDx=0;exitDy=0;" parent="1" edge="1">
          <mxGeometry width="50" height="50" relative="1" as="geometry">
            <mxPoint x="450" y="360.0000000000001" as="sourcePoint" />
            <mxPoint x="450" y="419.9999999999999" as="targetPoint" />
          </mxGeometry>
        </mxCell>
        <mxCell id="A8Zj77dTHGXYU6e9k1eK-8" value="" style="endArrow=classic;html=1;entryX=0.371;entryY=1.004;entryDx=0;entryDy=0;entryPerimeter=0;exitX=0.371;exitY=0;exitDx=0;exitDy=0;exitPerimeter=0;" parent="1" source="A8Zj77dTHGXYU6e9k1eK-3" target="A8Zj77dTHGXYU6e9k1eK-1" edge="1">
          <mxGeometry width="50" height="50" relative="1" as="geometry">
            <mxPoint x="415" y="410" as="sourcePoint" />
            <mxPoint x="414" y="419.9999999999999" as="targetPoint" />
          </mxGeometry>
        </mxCell>
        <mxCell id="A8Zj77dTHGXYU6e9k1eK-9" value="Режим пользователя" style="text;html=1;align=center;verticalAlign=middle;resizable=0;points=[];autosize=1;" parent="1" vertex="1">
          <mxGeometry x="520" y="360" width="130" height="20" as="geometry" />
        </mxCell>
        <mxCell id="A8Zj77dTHGXYU6e9k1eK-10" value="Режим ядра" style="text;html=1;align=center;verticalAlign=middle;resizable=0;points=[];autosize=1;" parent="1" vertex="1">
          <mxGeometry x="520" y="400" width="80" height="20" as="geometry" />
        </mxCell>
      </root>
    </mxGraphModel>
  </diagram>
  <diagram id="iAc_o0qKZ7yy7AC1RKd3" name="IDFE00">
    <mxGraphModel dx="1415" dy="753" grid="1" gridSize="10" guides="1" tooltips="1" connect="1" arrows="1" fold="1" page="1" pageScale="1" pageWidth="850" pageHeight="1100" math="0" shadow="0">
      <root>
        <mxCell id="0" />
        <mxCell id="1" parent="0" />
        <mxCell id="6qdyBFoQq2rVuEngXi9n-1" value="Обнаружение нестандартной активности во входящем сетевом трафике" style="rounded=0;whiteSpace=wrap;html=1;" parent="1" vertex="1">
          <mxGeometry x="360" y="290" width="220" height="140" as="geometry" />
        </mxCell>
        <mxCell id="6qdyBFoQq2rVuEngXi9n-2" value="" style="endArrow=classic;html=1;rounded=0;entryX=0;entryY=0.5;entryDx=0;entryDy=0;" parent="1" target="6qdyBFoQq2rVuEngXi9n-1" edge="1">
          <mxGeometry width="50" height="50" relative="1" as="geometry">
            <mxPoint x="200" y="360" as="sourcePoint" />
            <mxPoint x="460" y="390" as="targetPoint" />
          </mxGeometry>
        </mxCell>
        <mxCell id="6qdyBFoQq2rVuEngXi9n-3" value="входящий&amp;nbsp;&lt;br&gt;сетевой трафик" style="text;html=1;align=center;verticalAlign=middle;resizable=0;points=[];autosize=1;strokeColor=none;fillColor=none;" parent="1" vertex="1">
          <mxGeometry x="225" y="320" width="120" height="40" as="geometry" />
        </mxCell>
        <mxCell id="6qdyBFoQq2rVuEngXi9n-5" value="данные об&amp;nbsp; обнаруженной нестандартной активности" style="text;html=1;strokeColor=none;fillColor=none;align=center;verticalAlign=middle;whiteSpace=wrap;rounded=0;" parent="1" vertex="1">
          <mxGeometry x="590" y="330" width="170" height="20" as="geometry" />
        </mxCell>
        <mxCell id="6qdyBFoQq2rVuEngXi9n-6" value="" style="endArrow=classic;html=1;rounded=0;entryX=0;entryY=0.5;entryDx=0;entryDy=0;" parent="1" edge="1">
          <mxGeometry width="50" height="50" relative="1" as="geometry">
            <mxPoint x="580" y="359.5" as="sourcePoint" />
            <mxPoint x="740" y="359.5" as="targetPoint" />
          </mxGeometry>
        </mxCell>
        <mxCell id="6qdyBFoQq2rVuEngXi9n-7" value="" style="endArrow=classic;html=1;rounded=0;" parent="1" edge="1">
          <mxGeometry width="50" height="50" relative="1" as="geometry">
            <mxPoint x="425" y="140" as="sourcePoint" />
            <mxPoint x="425" y="290" as="targetPoint" />
          </mxGeometry>
        </mxCell>
        <mxCell id="6qdyBFoQq2rVuEngXi9n-8" value="" style="endArrow=classic;html=1;rounded=0;" parent="1" edge="1">
          <mxGeometry width="50" height="50" relative="1" as="geometry">
            <mxPoint x="520" y="140" as="sourcePoint" />
            <mxPoint x="520" y="290" as="targetPoint" />
          </mxGeometry>
        </mxCell>
        <mxCell id="6qdyBFoQq2rVuEngXi9n-10" value="network_header" style="text;html=1;strokeColor=none;fillColor=none;align=center;verticalAlign=middle;whiteSpace=wrap;rounded=0;" parent="1" vertex="1">
          <mxGeometry x="550" y="150" width="60" height="30" as="geometry" />
        </mxCell>
        <mxCell id="6qdyBFoQq2rVuEngXi9n-11" value="" style="edgeStyle=isometricEdgeStyle;endArrow=none;html=1;rounded=0;entryX=0.383;entryY=1.083;entryDx=0;entryDy=0;entryPerimeter=0;" parent="1" target="6qdyBFoQq2rVuEngXi9n-10" edge="1">
          <mxGeometry width="50" height="100" relative="1" as="geometry">
            <mxPoint x="530" y="220" as="sourcePoint" />
            <mxPoint x="594.2" y="180" as="targetPoint" />
          </mxGeometry>
        </mxCell>
        <mxCell id="6qdyBFoQq2rVuEngXi9n-13" value="" style="edgeStyle=isometricEdgeStyle;endArrow=none;html=1;elbow=vertical;rounded=0;entryX=0.5;entryY=1;entryDx=0;entryDy=0;" parent="1" edge="1">
          <mxGeometry width="50" height="100" relative="1" as="geometry">
            <mxPoint x="410" y="220" as="sourcePoint" />
            <mxPoint x="360" y="180" as="targetPoint" />
          </mxGeometry>
        </mxCell>
        <mxCell id="6qdyBFoQq2rVuEngXi9n-14" value="" style="endArrow=classic;html=1;rounded=0;" parent="1" edge="1">
          <mxGeometry width="50" height="50" relative="1" as="geometry">
            <mxPoint x="420" y="580" as="sourcePoint" />
            <mxPoint x="420" y="430" as="targetPoint" />
          </mxGeometry>
        </mxCell>
        <mxCell id="6qdyBFoQq2rVuEngXi9n-15" value="" style="endArrow=classic;html=1;rounded=0;" parent="1" edge="1">
          <mxGeometry width="50" height="50" relative="1" as="geometry">
            <mxPoint x="475" y="580" as="sourcePoint" />
            <mxPoint x="475" y="430" as="targetPoint" />
          </mxGeometry>
        </mxCell>
        <mxCell id="6qdyBFoQq2rVuEngXi9n-16" value="" style="endArrow=classic;html=1;rounded=0;" parent="1" edge="1">
          <mxGeometry width="50" height="50" relative="1" as="geometry">
            <mxPoint x="530" y="580" as="sourcePoint" />
            <mxPoint x="530" y="430" as="targetPoint" />
          </mxGeometry>
        </mxCell>
        <mxCell id="6qdyBFoQq2rVuEngXi9n-17" value="Netfilter" style="text;html=1;align=center;verticalAlign=middle;resizable=0;points=[];autosize=1;strokeColor=none;fillColor=none;" parent="1" vertex="1">
          <mxGeometry x="340" y="470" width="60" height="30" as="geometry" />
        </mxCell>
        <mxCell id="6qdyBFoQq2rVuEngXi9n-20" value="struct sk_buff" style="text;html=1;align=center;verticalAlign=middle;resizable=0;points=[];autosize=1;strokeColor=none;fillColor=none;" parent="1" vertex="1">
          <mxGeometry x="500" y="590" width="90" height="30" as="geometry" />
        </mxCell>
        <mxCell id="6qdyBFoQq2rVuEngXi9n-21" value="struct iphdr" style="text;html=1;align=center;verticalAlign=middle;resizable=0;points=[];autosize=1;strokeColor=none;fillColor=none;" parent="1" vertex="1">
          <mxGeometry x="395" y="590" width="80" height="30" as="geometry" />
        </mxCell>
        <mxCell id="6qdyBFoQq2rVuEngXi9n-22" value="" style="edgeStyle=isometricEdgeStyle;endArrow=none;html=1;elbow=vertical;rounded=0;entryX=0.481;entryY=1.171;entryDx=0;entryDy=0;entryPerimeter=0;" parent="1" target="6qdyBFoQq2rVuEngXi9n-17" edge="1">
          <mxGeometry width="50" height="100" relative="1" as="geometry">
            <mxPoint x="410" y="540" as="sourcePoint" />
            <mxPoint x="380" y="500" as="targetPoint" />
          </mxGeometry>
        </mxCell>
        <mxCell id="6qdyBFoQq2rVuEngXi9n-25" value="A0" style="text;html=1;strokeColor=none;fillColor=none;align=center;verticalAlign=middle;whiteSpace=wrap;rounded=0;" parent="1" vertex="1">
          <mxGeometry x="520" y="400" width="60" height="30" as="geometry" />
        </mxCell>
        <mxCell id="6qdyBFoQq2rVuEngXi9n-32" value="" style="edgeStyle=isometricEdgeStyle;endArrow=none;html=1;rounded=0;" parent="1" edge="1">
          <mxGeometry width="50" height="100" relative="1" as="geometry">
            <mxPoint x="437" y="600" as="sourcePoint" />
            <mxPoint x="472" y="570" as="targetPoint" />
          </mxGeometry>
        </mxCell>
        <mxCell id="6qdyBFoQq2rVuEngXi9n-34" value="" style="edgeStyle=isometricEdgeStyle;endArrow=none;html=1;elbow=vertical;rounded=0;" parent="1" edge="1">
          <mxGeometry width="50" height="100" relative="1" as="geometry">
            <mxPoint x="567" y="597" as="sourcePoint" />
            <mxPoint x="533" y="570" as="targetPoint" />
          </mxGeometry>
        </mxCell>
        <mxCell id="HdDudeX3aZ59ShSRrf9d-1" value="алгоритм поиска &lt;br&gt;нестандартной активности" style="text;html=1;align=center;verticalAlign=middle;resizable=0;points=[];autosize=1;strokeColor=none;fillColor=none;" parent="1" vertex="1">
          <mxGeometry x="230" y="140" width="180" height="40" as="geometry" />
        </mxCell>
      </root>
    </mxGraphModel>
  </diagram>
  <diagram id="WUiVqkk_IhNDh7BW03FU" name="IDEF01">
    <mxGraphModel dx="2972" dy="1130" grid="1" gridSize="10" guides="1" tooltips="1" connect="1" arrows="1" fold="1" page="1" pageScale="1" pageWidth="850" pageHeight="1100" math="0" shadow="0">
      <root>
        <mxCell id="0" />
        <mxCell id="1" parent="0" />
        <mxCell id="fsInM9ctQEArhbjgykCk-1" style="edgeStyle=orthogonalEdgeStyle;rounded=0;orthogonalLoop=1;jettySize=auto;html=1;entryX=0;entryY=0.5;entryDx=0;entryDy=0;" parent="1" source="89bIA40eR_28UjTfDW18-1" target="89bIA40eR_28UjTfDW18-2" edge="1">
          <mxGeometry relative="1" as="geometry" />
        </mxCell>
        <mxCell id="89bIA40eR_28UjTfDW18-1" value="Перехватить пакет" style="rounded=0;whiteSpace=wrap;html=1;" parent="1" vertex="1">
          <mxGeometry x="100" y="270" width="220" height="140" as="geometry" />
        </mxCell>
        <mxCell id="fsInM9ctQEArhbjgykCk-2" style="edgeStyle=orthogonalEdgeStyle;rounded=0;orthogonalLoop=1;jettySize=auto;html=1;entryX=0;entryY=0.5;entryDx=0;entryDy=0;" parent="1" source="89bIA40eR_28UjTfDW18-2" target="89bIA40eR_28UjTfDW18-3" edge="1">
          <mxGeometry relative="1" as="geometry" />
        </mxCell>
        <mxCell id="89bIA40eR_28UjTfDW18-2" value="Получить данные сетевого и транспортного уровня" style="rounded=0;whiteSpace=wrap;html=1;" parent="1" vertex="1">
          <mxGeometry x="456" y="340" width="220" height="140" as="geometry" />
        </mxCell>
        <mxCell id="89bIA40eR_28UjTfDW18-3" value="Обновить статистику о входящем сетевом трафике за текущий период" style="rounded=0;whiteSpace=wrap;html=1;" parent="1" vertex="1">
          <mxGeometry x="812" y="410" width="220" height="140" as="geometry" />
        </mxCell>
        <mxCell id="yypamP5leQcGv7cP9kWG-1" value="" style="endArrow=classic;html=1;rounded=0;" parent="1" edge="1">
          <mxGeometry width="50" height="50" relative="1" as="geometry">
            <mxPoint x="150" y="560" as="sourcePoint" />
            <mxPoint x="150" y="410" as="targetPoint" />
          </mxGeometry>
        </mxCell>
        <mxCell id="eTmpBU68rEX-dWNoUrwy-1" value="Netfilter" style="text;html=1;align=center;verticalAlign=middle;resizable=0;points=[];autosize=1;strokeColor=none;fillColor=none;" parent="1" vertex="1">
          <mxGeometry x="89" y="480" width="60" height="30" as="geometry" />
        </mxCell>
        <mxCell id="eTmpBU68rEX-dWNoUrwy-2" value="" style="endArrow=classic;html=1;rounded=0;" parent="1" edge="1">
          <mxGeometry width="50" height="50" relative="1" as="geometry">
            <mxPoint x="280" y="560" as="sourcePoint" />
            <mxPoint x="280" y="410" as="targetPoint" />
          </mxGeometry>
        </mxCell>
        <mxCell id="JFE0UQAgYcRxAUrojeyl-1" value="struct sk_buff" style="text;html=1;align=center;verticalAlign=middle;resizable=0;points=[];autosize=1;strokeColor=none;fillColor=none;" parent="1" vertex="1">
          <mxGeometry x="190" y="535" width="90" height="30" as="geometry" />
        </mxCell>
        <mxCell id="StHbWYScKge9HwkUBcxn-1" value="" style="endArrow=classic;html=1;rounded=0;entryX=0;entryY=0.5;entryDx=0;entryDy=0;edgeStyle=orthogonalEdgeStyle;" parent="1" target="Y5T8xRlBbLZ7jjZ1Dgrr-2" edge="1">
          <mxGeometry width="50" height="50" relative="1" as="geometry">
            <mxPoint x="1032" y="480" as="sourcePoint" />
            <mxPoint x="1192" y="480" as="targetPoint" />
          </mxGeometry>
        </mxCell>
        <mxCell id="StHbWYScKge9HwkUBcxn-2" value="Исторические данные о параметрах входящего сетевого трафика&amp;nbsp;" style="text;html=1;strokeColor=none;fillColor=none;align=center;verticalAlign=middle;whiteSpace=wrap;rounded=0;" parent="1" vertex="1">
          <mxGeometry x="1050" y="420" width="130" height="30" as="geometry" />
        </mxCell>
        <mxCell id="4nZlYKXEYCX4GvEmflh5-1" value="" style="endArrow=classic;html=1;rounded=0;entryX=0;entryY=0.5;entryDx=0;entryDy=0;" parent="1" edge="1">
          <mxGeometry width="50" height="50" relative="1" as="geometry">
            <mxPoint x="-60" y="340" as="sourcePoint" />
            <mxPoint x="100" y="340" as="targetPoint" />
          </mxGeometry>
        </mxCell>
        <mxCell id="4nZlYKXEYCX4GvEmflh5-2" value="пакет" style="text;html=1;align=center;verticalAlign=middle;resizable=0;points=[];autosize=1;strokeColor=none;fillColor=none;" parent="1" vertex="1">
          <mxGeometry x="-20" y="310" width="60" height="30" as="geometry" />
        </mxCell>
        <mxCell id="4nZlYKXEYCX4GvEmflh5-3" value="перехваченный&lt;br&gt;пакет" style="text;html=1;align=center;verticalAlign=middle;resizable=0;points=[];autosize=1;strokeColor=none;fillColor=none;" parent="1" vertex="1">
          <mxGeometry x="330" y="295" width="110" height="40" as="geometry" />
        </mxCell>
        <mxCell id="4nZlYKXEYCX4GvEmflh5-4" value="заголовок и &lt;br&gt;параметры&lt;br&gt;пакета" style="text;html=1;align=center;verticalAlign=middle;resizable=0;points=[];autosize=1;strokeColor=none;fillColor=none;" parent="1" vertex="1">
          <mxGeometry x="690" y="350" width="90" height="60" as="geometry" />
        </mxCell>
        <mxCell id="vvUil__sBH1xARZskbsu-1" value="" style="endArrow=classic;html=1;rounded=0;" parent="1" edge="1">
          <mxGeometry width="50" height="50" relative="1" as="geometry">
            <mxPoint x="565.84" y="190" as="sourcePoint" />
            <mxPoint x="565.84" y="340" as="targetPoint" />
          </mxGeometry>
        </mxCell>
        <mxCell id="l9V9FhgA7U43Klgi2GaI-1" value="network_header" style="text;html=1;strokeColor=none;fillColor=none;align=center;verticalAlign=middle;whiteSpace=wrap;rounded=0;" parent="1" vertex="1">
          <mxGeometry x="590" y="210" width="60" height="30" as="geometry" />
        </mxCell>
        <mxCell id="l9V9FhgA7U43Klgi2GaI-2" value="" style="endArrow=classic;html=1;rounded=0;" parent="1" edge="1">
          <mxGeometry width="50" height="50" relative="1" as="geometry">
            <mxPoint x="565.55" y="630" as="sourcePoint" />
            <mxPoint x="565.55" y="480" as="targetPoint" />
          </mxGeometry>
        </mxCell>
        <mxCell id="eJ2BLM1Xg9eIZQLdlWNL-1" value="struct iphdr" style="text;html=1;align=center;verticalAlign=middle;resizable=0;points=[];autosize=1;strokeColor=none;fillColor=none;" parent="1" vertex="1">
          <mxGeometry x="490" y="590" width="80" height="30" as="geometry" />
        </mxCell>
        <mxCell id="47CDM3vGPpk3MqiapPi4-1" value="A1" style="text;html=1;strokeColor=none;fillColor=none;align=center;verticalAlign=middle;whiteSpace=wrap;rounded=0;" parent="1" vertex="1">
          <mxGeometry x="260" y="380" width="60" height="30" as="geometry" />
        </mxCell>
        <mxCell id="47CDM3vGPpk3MqiapPi4-2" value="A2" style="text;html=1;strokeColor=none;fillColor=none;align=center;verticalAlign=middle;whiteSpace=wrap;rounded=0;" parent="1" vertex="1">
          <mxGeometry x="616" y="450" width="60" height="30" as="geometry" />
        </mxCell>
        <mxCell id="47CDM3vGPpk3MqiapPi4-3" value="A3" style="text;html=1;strokeColor=none;fillColor=none;align=center;verticalAlign=middle;whiteSpace=wrap;rounded=0;" parent="1" vertex="1">
          <mxGeometry x="972" y="520" width="60" height="30" as="geometry" />
        </mxCell>
        <mxCell id="Y5T8xRlBbLZ7jjZ1Dgrr-2" value="Определить является ли текущий период отклонением" style="rounded=0;whiteSpace=wrap;html=1;" parent="1" vertex="1">
          <mxGeometry x="1170" y="480" width="220" height="140" as="geometry" />
        </mxCell>
        <mxCell id="Y5T8xRlBbLZ7jjZ1Dgrr-3" value="A4" style="text;html=1;strokeColor=none;fillColor=none;align=center;verticalAlign=middle;whiteSpace=wrap;rounded=0;" parent="1" vertex="1">
          <mxGeometry x="1330" y="590" width="60" height="30" as="geometry" />
        </mxCell>
        <mxCell id="Y5T8xRlBbLZ7jjZ1Dgrr-4" value="" style="endArrow=classic;html=1;rounded=0;" parent="1" edge="1">
          <mxGeometry width="50" height="50" relative="1" as="geometry">
            <mxPoint x="1279.66" y="330" as="sourcePoint" />
            <mxPoint x="1279.66" y="480" as="targetPoint" />
          </mxGeometry>
        </mxCell>
        <mxCell id="Y5T8xRlBbLZ7jjZ1Dgrr-5" value="Принцип анализа&lt;br&gt;исторических данных" style="text;html=1;align=center;verticalAlign=middle;resizable=0;points=[];autosize=1;strokeColor=none;fillColor=none;" parent="1" vertex="1">
          <mxGeometry x="1275" y="375" width="150" height="40" as="geometry" />
        </mxCell>
        <mxCell id="Y5T8xRlBbLZ7jjZ1Dgrr-6" value="" style="endArrow=classic;html=1;rounded=0;entryX=0;entryY=0.5;entryDx=0;entryDy=0;" parent="1" edge="1">
          <mxGeometry width="50" height="50" relative="1" as="geometry">
            <mxPoint x="1390" y="550" as="sourcePoint" />
            <mxPoint x="1550" y="550" as="targetPoint" />
          </mxGeometry>
        </mxCell>
        <mxCell id="Y5T8xRlBbLZ7jjZ1Dgrr-8" value="Исторические данные о &lt;br&gt;возникновении нестандартного &lt;br&gt;поведения в сетевом трафике" style="text;html=1;align=center;verticalAlign=middle;resizable=0;points=[];autosize=1;strokeColor=none;fillColor=none;" parent="1" vertex="1">
          <mxGeometry x="1405" y="490" width="200" height="60" as="geometry" />
        </mxCell>
      </root>
    </mxGraphModel>
  </diagram>
  <diagram id="AI-2hRt72ur13crlJ4mW" name="Алгоритм инициализации модуля">
    <mxGraphModel dx="1061" dy="565" grid="1" gridSize="10" guides="1" tooltips="1" connect="1" arrows="1" fold="1" page="1" pageScale="1" pageWidth="850" pageHeight="1100" math="0" shadow="0">
      <root>
        <mxCell id="0" />
        <mxCell id="1" parent="0" />
        <mxCell id="Cjv06NRzOEsRF6gAlWw_-1" value="" style="edgeStyle=orthogonalEdgeStyle;rounded=0;orthogonalLoop=1;jettySize=auto;fontFamily=Helvetica;fontSize=14;fontStyle=0" parent="1" source="Cjv06NRzOEsRF6gAlWw_-8" target="Cjv06NRzOEsRF6gAlWw_-3" edge="1">
          <mxGeometry relative="1" as="geometry">
            <mxPoint x="275.06" y="812.5" as="targetPoint" />
          </mxGeometry>
        </mxCell>
        <mxCell id="Cjv06NRzOEsRF6gAlWw_-2" value="Начало" style="strokeWidth=1;shape=mxgraph.flowchart.terminator;whiteSpace=wrap;fontFamily=Helvetica;fontSize=14;fontStyle=0" parent="1" vertex="1">
          <mxGeometry x="175.12" y="680" width="200" height="60" as="geometry" />
        </mxCell>
        <mxCell id="Cjv06NRzOEsRF6gAlWw_-3" value="Создание &#xa;файла завершилось &#xa;с ошибкой?" style="rhombus;whiteSpace=wrap;strokeWidth=1;fontFamily=Helvetica;fontSize=14;fontStyle=0" parent="1" vertex="1">
          <mxGeometry x="175.12" y="860" width="200" height="80" as="geometry" />
        </mxCell>
        <mxCell id="Cjv06NRzOEsRF6gAlWw_-4" style="edgeStyle=orthogonalEdgeStyle;rounded=0;orthogonalLoop=1;jettySize=auto;html=1;entryX=0.5;entryY=0;entryDx=0;entryDy=0;" parent="1" source="Cjv06NRzOEsRF6gAlWw_-5" target="Cjv06NRzOEsRF6gAlWw_-17" edge="1">
          <mxGeometry relative="1" as="geometry" />
        </mxCell>
        <mxCell id="Cjv06NRzOEsRF6gAlWw_-5" value="Регистрация функции перехвата исходящих сетевых пакетов" style="shape=process;whiteSpace=wrap;backgroundOutline=1;fontFamily=Helvetica;fontSize=14;fontStyle=0" parent="1" vertex="1">
          <mxGeometry x="315" y="1050" width="200" height="80" as="geometry" />
        </mxCell>
        <mxCell id="Cjv06NRzOEsRF6gAlWw_-6" style="edgeStyle=orthogonalEdgeStyle;rounded=0;orthogonalLoop=1;jettySize=auto;html=1;entryX=0.5;entryY=0;entryDx=0;entryDy=0;entryPerimeter=0;" parent="1" source="Cjv06NRzOEsRF6gAlWw_-11" target="Cjv06NRzOEsRF6gAlWw_-7" edge="1">
          <mxGeometry relative="1" as="geometry" />
        </mxCell>
        <mxCell id="Cjv06NRzOEsRF6gAlWw_-7" value="Конец" style="strokeWidth=1;shape=mxgraph.flowchart.terminator;whiteSpace=wrap;fontFamily=Helvetica;fontSize=14;fontStyle=0" parent="1" vertex="1">
          <mxGeometry x="175" y="1520" width="200" height="60" as="geometry" />
        </mxCell>
        <mxCell id="Cjv06NRzOEsRF6gAlWw_-8" value="Создание proc-файла для хранения правил отслеживания" style="shape=process;whiteSpace=wrap;backgroundOutline=1;fontFamily=Helvetica;fontSize=14;fontStyle=0" parent="1" vertex="1">
          <mxGeometry x="175" y="760" width="200" height="80" as="geometry" />
        </mxCell>
        <mxCell id="Cjv06NRzOEsRF6gAlWw_-9" value="" style="edgeStyle=orthogonalEdgeStyle;rounded=0;orthogonalLoop=1;jettySize=auto;fontFamily=Helvetica;fontSize=14;fontStyle=0" parent="1" source="Cjv06NRzOEsRF6gAlWw_-2" target="Cjv06NRzOEsRF6gAlWw_-8" edge="1">
          <mxGeometry relative="1" as="geometry">
            <mxPoint x="275.1199999999999" y="840.0240000000001" as="targetPoint" />
            <mxPoint x="275.1199999999999" y="720" as="sourcePoint" />
          </mxGeometry>
        </mxCell>
        <mxCell id="Cjv06NRzOEsRF6gAlWw_-10" style="edgeStyle=orthogonalEdgeStyle;rounded=0;orthogonalLoop=1;jettySize=auto;html=1;exitX=0.5;exitY=0;exitDx=0;exitDy=0;endArrow=none;endFill=0;" parent="1" source="Cjv06NRzOEsRF6gAlWw_-11" edge="1">
          <mxGeometry relative="1" as="geometry">
            <mxPoint x="420" y="1340" as="targetPoint" />
            <Array as="points">
              <mxPoint x="275" y="1380" />
              <mxPoint x="420" y="1380" />
            </Array>
          </mxGeometry>
        </mxCell>
        <mxCell id="Cjv06NRzOEsRF6gAlWw_-11" value="Вернуть код ошибки" style="rounded=0;whiteSpace=wrap;strokeWidth=1;fontFamily=Helvetica;fontSize=14;fontStyle=0" parent="1" vertex="1">
          <mxGeometry x="175" y="1420" width="200" height="80" as="geometry" />
        </mxCell>
        <mxCell id="Cjv06NRzOEsRF6gAlWw_-12" style="edgeStyle=orthogonalEdgeStyle;rounded=0;orthogonalLoop=1;jettySize=auto;html=1;entryX=0.5;entryY=0;entryDx=0;entryDy=0;" parent="1" source="Cjv06NRzOEsRF6gAlWw_-13" target="Cjv06NRzOEsRF6gAlWw_-5" edge="1">
          <mxGeometry relative="1" as="geometry" />
        </mxCell>
        <mxCell id="Cjv06NRzOEsRF6gAlWw_-13" value="Заполнение структуры struct nf_hook_ops для фильтрации исходящих пакетов" style="rounded=0;whiteSpace=wrap;strokeWidth=1;fontFamily=Helvetica;fontSize=14;fontStyle=0" parent="1" vertex="1">
          <mxGeometry x="315.12" y="950" width="200" height="80" as="geometry" />
        </mxCell>
        <mxCell id="Cjv06NRzOEsRF6gAlWw_-14" value="" style="edgeStyle=orthogonalEdgeStyle;rounded=0;orthogonalLoop=1;jettySize=auto;fontFamily=Helvetica;fontSize=14;fontStyle=0;entryX=0.5;entryY=0;entryDx=0;entryDy=0;" parent="1" target="Cjv06NRzOEsRF6gAlWw_-13" edge="1">
          <mxGeometry relative="1" as="geometry">
            <Array as="points">
              <mxPoint x="415" y="900" />
            </Array>
            <mxPoint x="275.0000000000002" y="1130" as="targetPoint" />
            <mxPoint x="370" y="900" as="sourcePoint" />
          </mxGeometry>
        </mxCell>
        <mxCell id="Cjv06NRzOEsRF6gAlWw_-15" value="Да" style="edgeStyle=orthogonalEdgeStyle;rounded=0;orthogonalLoop=1;jettySize=auto;html=1;endArrow=none;endFill=0;exitX=0;exitY=0.5;exitDx=0;exitDy=0;entryX=0.5;entryY=1;entryDx=0;entryDy=0;" parent="1" source="Cjv06NRzOEsRF6gAlWw_-17" target="Cjv06NRzOEsRF6gAlWw_-26" edge="1">
          <mxGeometry x="-0.9539" y="-9" relative="1" as="geometry">
            <mxPoint x="590" y="1610" as="targetPoint" />
            <Array as="points">
              <mxPoint x="270" y="1189" />
              <mxPoint x="270" y="1340" />
              <mxPoint x="590" y="1340" />
            </Array>
            <mxPoint x="1" as="offset" />
          </mxGeometry>
        </mxCell>
        <mxCell id="M1UfRSUzxkH_4b2pPxc_-1" style="edgeStyle=orthogonalEdgeStyle;rounded=0;orthogonalLoop=1;jettySize=auto;html=1;exitX=1;exitY=0.5;exitDx=0;exitDy=0;entryX=0.5;entryY=0;entryDx=0;entryDy=0;" parent="1" source="Cjv06NRzOEsRF6gAlWw_-17" target="Cjv06NRzOEsRF6gAlWw_-26" edge="1">
          <mxGeometry relative="1" as="geometry" />
        </mxCell>
        <mxCell id="Cjv06NRzOEsRF6gAlWw_-17" value="Регистрация&#xa; завершилось &#xa;с ошибкой?" style="rhombus;whiteSpace=wrap;strokeWidth=1;fontFamily=Helvetica;fontSize=14;fontStyle=0" parent="1" vertex="1">
          <mxGeometry x="315.12" y="1149" width="200" height="80" as="geometry" />
        </mxCell>
        <mxCell id="Cjv06NRzOEsRF6gAlWw_-26" value="Код ошибки = 0" style="rounded=0;whiteSpace=wrap;strokeWidth=1;fontFamily=Helvetica;fontSize=14;fontStyle=0" parent="1" vertex="1">
          <mxGeometry x="490" y="1230" width="200" height="80" as="geometry" />
        </mxCell>
        <mxCell id="Cjv06NRzOEsRF6gAlWw_-27" value="Да" style="edgeStyle=orthogonalEdgeStyle;rounded=0;orthogonalLoop=1;jettySize=auto;fontFamily=Helvetica;fontSize=14;fontStyle=0;endArrow=classic;endFill=1;exitX=0.024;exitY=0.5;exitDx=0;exitDy=0;exitPerimeter=0;entryX=0.5;entryY=0;entryDx=0;entryDy=0;" parent="1" source="Cjv06NRzOEsRF6gAlWw_-3" target="Cjv06NRzOEsRF6gAlWw_-11" edge="1">
          <mxGeometry x="-0.9572" y="-20" relative="1" as="geometry">
            <mxPoint as="offset" />
            <mxPoint x="170" y="900" as="sourcePoint" />
            <mxPoint x="40" y="1690" as="targetPoint" />
            <Array as="points">
              <mxPoint x="100" y="900" />
              <mxPoint x="100" y="1380" />
              <mxPoint x="275" y="1380" />
            </Array>
          </mxGeometry>
        </mxCell>
      </root>
    </mxGraphModel>
  </diagram>
  <diagram id="uRsitx4JjJ9xV1AONh3H" name="Фильтрация отслеживаемых пакетов">
    <mxGraphModel dx="1061" dy="565" grid="1" gridSize="10" guides="1" tooltips="1" connect="1" arrows="1" fold="1" page="1" pageScale="1" pageWidth="850" pageHeight="1100" math="0" shadow="0">
      <root>
        <mxCell id="0" />
        <mxCell id="1" parent="0" />
        <mxCell id="1sIFLxKLywHVHDAKVHb9-1" style="edgeStyle=orthogonalEdgeStyle;rounded=0;orthogonalLoop=1;jettySize=auto;html=1;startSize=1;endArrow=classic;endFill=1;endSize=5;strokeWidth=1;" parent="1" source="1sIFLxKLywHVHDAKVHb9-2" target="1sIFLxKLywHVHDAKVHb9-4" edge="1">
          <mxGeometry relative="1" as="geometry" />
        </mxCell>
        <mxCell id="1sIFLxKLywHVHDAKVHb9-2" value="Начало" style="strokeWidth=1;shape=mxgraph.flowchart.terminator;whiteSpace=wrap;fontFamily=Helvetica;fontSize=14;fontStyle=0" parent="1" vertex="1">
          <mxGeometry x="190" y="570" width="200" height="60" as="geometry" />
        </mxCell>
        <mxCell id="XHysYTmboVkBupzgZ_an-3" style="edgeStyle=orthogonalEdgeStyle;rounded=0;orthogonalLoop=1;jettySize=auto;html=1;exitX=0;exitY=0.5;exitDx=0;exitDy=0;entryX=0.5;entryY=0;entryDx=0;entryDy=0;" parent="1" source="1sIFLxKLywHVHDAKVHb9-4" target="1sIFLxKLywHVHDAKVHb9-6" edge="1">
          <mxGeometry relative="1" as="geometry" />
        </mxCell>
        <mxCell id="eErkumNcTFmhYOiaMdL8-2" style="edgeStyle=orthogonalEdgeStyle;rounded=0;orthogonalLoop=1;jettySize=auto;html=1;entryX=0.5;entryY=1;entryDx=0;entryDy=0;endArrow=none;endFill=0;" parent="1" source="1sIFLxKLywHVHDAKVHb9-4" target="91L8lKaq-mRda3HCy2pY-1" edge="1">
          <mxGeometry relative="1" as="geometry">
            <Array as="points">
              <mxPoint x="440" y="690" />
              <mxPoint x="440" y="1080" />
              <mxPoint x="130" y="1080" />
            </Array>
          </mxGeometry>
        </mxCell>
        <mxCell id="1sIFLxKLywHVHDAKVHb9-4" value="skb == NULL?" style="rhombus;whiteSpace=wrap;strokeWidth=1;fontFamily=Helvetica;fontSize=14;fontStyle=0" parent="1" vertex="1">
          <mxGeometry x="190" y="650" width="200" height="80" as="geometry" />
        </mxCell>
        <mxCell id="eErkumNcTFmhYOiaMdL8-3" style="edgeStyle=orthogonalEdgeStyle;rounded=0;orthogonalLoop=1;jettySize=auto;html=1;entryX=0.5;entryY=0;entryDx=0;entryDy=0;" parent="1" source="1sIFLxKLywHVHDAKVHb9-6" target="eErkumNcTFmhYOiaMdL8-1" edge="1">
          <mxGeometry relative="1" as="geometry" />
        </mxCell>
        <mxCell id="1sIFLxKLywHVHDAKVHb9-6" value="Получение сетевого заголовка ip_header" style="rounded=0;whiteSpace=wrap;strokeWidth=1;fontFamily=Helvetica;fontSize=14;fontStyle=0" parent="1" vertex="1">
          <mxGeometry x="29.999999999999943" y="750" width="200" height="80" as="geometry" />
        </mxCell>
        <mxCell id="1sIFLxKLywHVHDAKVHb9-10" value="" style="endArrow=none;dashed=1;html=1;strokeWidth=1;entryX=1;entryY=0.5;entryDx=0;entryDy=0;entryPerimeter=0;startSize=1;endSize=1;exitX=0.12;exitY=0.498;exitDx=0;exitDy=0;exitPerimeter=0;" parent="1" source="1sIFLxKLywHVHDAKVHb9-11" target="1sIFLxKLywHVHDAKVHb9-2" edge="1">
          <mxGeometry width="50" height="50" relative="1" as="geometry">
            <mxPoint x="475.03999999999996" y="600" as="sourcePoint" />
            <mxPoint x="375.03999999999996" y="950" as="targetPoint" />
          </mxGeometry>
        </mxCell>
        <mxCell id="1sIFLxKLywHVHDAKVHb9-11" value="Принимает:&lt;br&gt;информацию о пакете struct sk_buff *skb,&lt;br&gt;информацию о перехвате struct nf_hook_state *state" style="strokeWidth=1;html=1;shape=mxgraph.flowchart.annotation_2;align=left;labelPosition=right;pointerEvents=1;" parent="1" vertex="1">
          <mxGeometry x="465.03999999999996" y="570" width="50" height="60" as="geometry" />
        </mxCell>
        <mxCell id="eErkumNcTFmhYOiaMdL8-4" style="edgeStyle=orthogonalEdgeStyle;rounded=0;orthogonalLoop=1;jettySize=auto;html=1;startArrow=classic;startFill=1;endArrow=none;endFill=0;" parent="1" source="1sIFLxKLywHVHDAKVHb9-31" edge="1">
          <mxGeometry relative="1" as="geometry">
            <mxPoint x="290" y="1080" as="targetPoint" />
          </mxGeometry>
        </mxCell>
        <mxCell id="1sIFLxKLywHVHDAKVHb9-31" value="Вернуть NF_ACCEPT" style="rounded=0;whiteSpace=wrap;strokeWidth=1;fontFamily=Helvetica;fontSize=14;fontStyle=0" parent="1" vertex="1">
          <mxGeometry x="190" y="1120" width="200" height="80" as="geometry" />
        </mxCell>
        <mxCell id="1sIFLxKLywHVHDAKVHb9-82" value="Конец" style="strokeWidth=1;shape=mxgraph.flowchart.terminator;whiteSpace=wrap;fontFamily=Helvetica;fontSize=14;fontStyle=0" parent="1" vertex="1">
          <mxGeometry x="190" y="1230" width="200" height="60" as="geometry" />
        </mxCell>
        <mxCell id="XHysYTmboVkBupzgZ_an-1" style="edgeStyle=orthogonalEdgeStyle;rounded=0;orthogonalLoop=1;jettySize=auto;html=1;entryX=0.5;entryY=0;entryDx=0;entryDy=0;entryPerimeter=0;" parent="1" source="1sIFLxKLywHVHDAKVHb9-31" target="1sIFLxKLywHVHDAKVHb9-82" edge="1">
          <mxGeometry relative="1" as="geometry" />
        </mxCell>
        <mxCell id="XHysYTmboVkBupzgZ_an-5" value="Да" style="text;html=1;align=center;verticalAlign=middle;resizable=0;points=[];autosize=1;strokeColor=none;fillColor=none;" parent="1" vertex="1">
          <mxGeometry x="400" y="658" width="40" height="30" as="geometry" />
        </mxCell>
        <mxCell id="91L8lKaq-mRda3HCy2pY-3" style="edgeStyle=orthogonalEdgeStyle;rounded=0;orthogonalLoop=1;jettySize=auto;html=1;entryX=0.5;entryY=0;entryDx=0;entryDy=0;" parent="1" source="eErkumNcTFmhYOiaMdL8-1" target="91L8lKaq-mRda3HCy2pY-1" edge="1">
          <mxGeometry relative="1" as="geometry" />
        </mxCell>
        <mxCell id="eErkumNcTFmhYOiaMdL8-1" value="Собрать статистику по пакету" style="rounded=0;whiteSpace=wrap;strokeWidth=1;fontFamily=Helvetica;fontSize=14;fontStyle=0" parent="1" vertex="1">
          <mxGeometry x="30" y="870" width="200" height="80" as="geometry" />
        </mxCell>
        <mxCell id="91L8lKaq-mRda3HCy2pY-1" value="Обновить исторические данные " style="rounded=0;whiteSpace=wrap;strokeWidth=1;fontFamily=Helvetica;fontSize=14;fontStyle=0" parent="1" vertex="1">
          <mxGeometry x="30" y="980" width="200" height="80" as="geometry" />
        </mxCell>
      </root>
    </mxGraphModel>
  </diagram>
  <diagram id="kEkw3e_wnWOYqjT4Cs81" name="Определение аномалия">
    <mxGraphModel dx="2482" dy="869" grid="1" gridSize="10" guides="1" tooltips="1" connect="1" arrows="1" fold="1" page="1" pageScale="1" pageWidth="850" pageHeight="1100" math="0" shadow="0">
      <root>
        <mxCell id="0" />
        <mxCell id="1" parent="0" />
        <mxCell id="1tcFUf7O_G_40CWmEYsa-2" style="edgeStyle=orthogonalEdgeStyle;rounded=0;orthogonalLoop=1;jettySize=auto;html=1;exitX=0.5;exitY=1;exitDx=0;exitDy=0;exitPerimeter=0;entryX=0.5;entryY=0;entryDx=0;entryDy=0;" parent="1" source="p-qloYxnkK3gZZ016wMr-1" target="ra-D85uqylbqhD38Ssjh-1" edge="1">
          <mxGeometry relative="1" as="geometry" />
        </mxCell>
        <mxCell id="p-qloYxnkK3gZZ016wMr-1" value="Начало" style="strokeWidth=1;shape=mxgraph.flowchart.terminator;whiteSpace=wrap;fontFamily=Helvetica;fontSize=14;fontStyle=0" parent="1" vertex="1">
          <mxGeometry x="190" y="570" width="200" height="60" as="geometry" />
        </mxCell>
        <mxCell id="p-qloYxnkK3gZZ016wMr-2" value="" style="endArrow=none;dashed=1;html=1;strokeWidth=1;entryX=1;entryY=0.5;entryDx=0;entryDy=0;entryPerimeter=0;startSize=1;endSize=1;exitX=0.12;exitY=0.498;exitDx=0;exitDy=0;exitPerimeter=0;" parent="1" source="p-qloYxnkK3gZZ016wMr-3" target="p-qloYxnkK3gZZ016wMr-1" edge="1">
          <mxGeometry width="50" height="50" relative="1" as="geometry">
            <mxPoint x="475.03999999999996" y="600" as="sourcePoint" />
            <mxPoint x="375.03999999999996" y="950" as="targetPoint" />
          </mxGeometry>
        </mxCell>
        <mxCell id="p-qloYxnkK3gZZ016wMr-3" value="Принимает:&lt;br&gt;исторические данные об анализируемом параметре,&lt;br&gt;актуальное значение анализируемого параметра (val),&lt;br&gt;значение инициализации анализируемого параметра (ini_val),&lt;br&gt;коэффициент доверия (k)" style="strokeWidth=1;html=1;shape=mxgraph.flowchart.annotation_2;align=left;labelPosition=right;pointerEvents=1;" parent="1" vertex="1">
          <mxGeometry x="465.03999999999996" y="570" width="50" height="60" as="geometry" />
        </mxCell>
        <mxCell id="1tcFUf7O_G_40CWmEYsa-16" style="edgeStyle=orthogonalEdgeStyle;rounded=0;orthogonalLoop=1;jettySize=auto;html=1;startArrow=classic;startFill=1;endArrow=none;endFill=0;" parent="1" source="NRx-SwsC9SCQmbBIlww3-1" edge="1">
          <mxGeometry relative="1" as="geometry">
            <mxPoint x="290" y="1210" as="targetPoint" />
          </mxGeometry>
        </mxCell>
        <mxCell id="NRx-SwsC9SCQmbBIlww3-1" value="Конец" style="strokeWidth=1;shape=mxgraph.flowchart.terminator;whiteSpace=wrap;fontFamily=Helvetica;fontSize=14;fontStyle=0" parent="1" vertex="1">
          <mxGeometry x="190" y="1250" width="200" height="60" as="geometry" />
        </mxCell>
        <mxCell id="1tcFUf7O_G_40CWmEYsa-3" style="edgeStyle=orthogonalEdgeStyle;rounded=0;orthogonalLoop=1;jettySize=auto;html=1;entryX=0.5;entryY=0;entryDx=0;entryDy=0;" parent="1" source="ra-D85uqylbqhD38Ssjh-1" target="1tcFUf7O_G_40CWmEYsa-1" edge="1">
          <mxGeometry relative="1" as="geometry">
            <Array as="points">
              <mxPoint x="150" y="690" />
            </Array>
          </mxGeometry>
        </mxCell>
        <mxCell id="1tcFUf7O_G_40CWmEYsa-15" style="edgeStyle=orthogonalEdgeStyle;rounded=0;orthogonalLoop=1;jettySize=auto;html=1;endArrow=none;endFill=0;" parent="1" source="ra-D85uqylbqhD38Ssjh-1" edge="1">
          <mxGeometry relative="1" as="geometry">
            <mxPoint x="150" y="1180" as="targetPoint" />
            <Array as="points">
              <mxPoint x="460" y="690" />
              <mxPoint x="460" y="1210" />
              <mxPoint x="150" y="1210" />
            </Array>
          </mxGeometry>
        </mxCell>
        <mxCell id="ra-D85uqylbqhD38Ssjh-1" value="len(h_data) &gt; 0 ?" style="rhombus;whiteSpace=wrap;strokeWidth=1;fontFamily=Helvetica;fontSize=14;fontStyle=0" parent="1" vertex="1">
          <mxGeometry x="190" y="650" width="200" height="80" as="geometry" />
        </mxCell>
        <mxCell id="1tcFUf7O_G_40CWmEYsa-5" style="edgeStyle=orthogonalEdgeStyle;rounded=0;orthogonalLoop=1;jettySize=auto;html=1;entryX=0.5;entryY=0;entryDx=0;entryDy=0;" parent="1" source="1tcFUf7O_G_40CWmEYsa-1" target="1tcFUf7O_G_40CWmEYsa-4" edge="1">
          <mxGeometry relative="1" as="geometry" />
        </mxCell>
        <mxCell id="1tcFUf7O_G_40CWmEYsa-1" value="Расчет среднего значения анализируемого параметра (avg_val) на основе исторических данных" style="rounded=0;whiteSpace=wrap;strokeWidth=1;fontFamily=Helvetica;fontSize=14;fontStyle=0" parent="1" vertex="1">
          <mxGeometry x="49.99999999999994" y="750" width="200" height="80" as="geometry" />
        </mxCell>
        <mxCell id="1tcFUf7O_G_40CWmEYsa-7" style="edgeStyle=orthogonalEdgeStyle;rounded=0;orthogonalLoop=1;jettySize=auto;html=1;entryX=0.5;entryY=0;entryDx=0;entryDy=0;" parent="1" source="1tcFUf7O_G_40CWmEYsa-4" target="1tcFUf7O_G_40CWmEYsa-6" edge="1">
          <mxGeometry relative="1" as="geometry" />
        </mxCell>
        <mxCell id="1tcFUf7O_G_40CWmEYsa-4" value="max_limit = ini_val + avg_val * (1 + k)" style="rounded=0;whiteSpace=wrap;strokeWidth=1;fontFamily=Helvetica;fontSize=14;fontStyle=0" parent="1" vertex="1">
          <mxGeometry x="49.99999999999994" y="860" width="200" height="80" as="geometry" />
        </mxCell>
        <mxCell id="1tcFUf7O_G_40CWmEYsa-11" style="edgeStyle=orthogonalEdgeStyle;rounded=0;orthogonalLoop=1;jettySize=auto;html=1;exitX=1;exitY=0.5;exitDx=0;exitDy=0;entryX=0.5;entryY=0;entryDx=0;entryDy=0;" parent="1" source="1tcFUf7O_G_40CWmEYsa-6" target="1tcFUf7O_G_40CWmEYsa-9" edge="1">
          <mxGeometry relative="1" as="geometry" />
        </mxCell>
        <mxCell id="1tcFUf7O_G_40CWmEYsa-13" style="edgeStyle=orthogonalEdgeStyle;rounded=0;orthogonalLoop=1;jettySize=auto;html=1;entryX=0.5;entryY=0;entryDx=0;entryDy=0;" parent="1" source="1tcFUf7O_G_40CWmEYsa-6" target="1tcFUf7O_G_40CWmEYsa-8" edge="1">
          <mxGeometry relative="1" as="geometry">
            <Array as="points">
              <mxPoint x="10" y="1010" />
            </Array>
          </mxGeometry>
        </mxCell>
        <mxCell id="1tcFUf7O_G_40CWmEYsa-6" value="val &gt; max_limit ?" style="rhombus;whiteSpace=wrap;strokeWidth=1;fontFamily=Helvetica;fontSize=14;fontStyle=0" parent="1" vertex="1">
          <mxGeometry x="50" y="970" width="200" height="80" as="geometry" />
        </mxCell>
        <mxCell id="1tcFUf7O_G_40CWmEYsa-14" style="edgeStyle=orthogonalEdgeStyle;rounded=0;orthogonalLoop=1;jettySize=auto;html=1;entryX=0.5;entryY=1;entryDx=0;entryDy=0;endArrow=none;endFill=0;" parent="1" source="1tcFUf7O_G_40CWmEYsa-8" target="1tcFUf7O_G_40CWmEYsa-9" edge="1">
          <mxGeometry relative="1" as="geometry">
            <Array as="points">
              <mxPoint x="10" y="1180" />
              <mxPoint x="290" y="1180" />
            </Array>
          </mxGeometry>
        </mxCell>
        <mxCell id="1tcFUf7O_G_40CWmEYsa-8" value="Значение параметра не является нестандартным" style="rounded=0;whiteSpace=wrap;strokeWidth=1;fontFamily=Helvetica;fontSize=14;fontStyle=0" parent="1" vertex="1">
          <mxGeometry x="-90.00000000000006" y="1080" width="200" height="80" as="geometry" />
        </mxCell>
        <mxCell id="1tcFUf7O_G_40CWmEYsa-9" value="Значение параметра является нестандартным" style="rounded=0;whiteSpace=wrap;strokeWidth=1;fontFamily=Helvetica;fontSize=14;fontStyle=0" parent="1" vertex="1">
          <mxGeometry x="189.99999999999994" y="1080" width="200" height="80" as="geometry" />
        </mxCell>
        <mxCell id="1tcFUf7O_G_40CWmEYsa-10" value="Да" style="text;html=1;align=center;verticalAlign=middle;resizable=0;points=[];autosize=1;strokeColor=none;fillColor=none;" parent="1" vertex="1">
          <mxGeometry x="140" y="648" width="40" height="30" as="geometry" />
        </mxCell>
        <mxCell id="1tcFUf7O_G_40CWmEYsa-12" value="Да" style="text;html=1;align=center;verticalAlign=middle;resizable=0;points=[];autosize=1;strokeColor=none;fillColor=none;" parent="1" vertex="1">
          <mxGeometry x="250" y="978" width="40" height="30" as="geometry" />
        </mxCell>
      </root>
    </mxGraphModel>
  </diagram>
  <diagram id="i7RMmSFjz1UvYWG0BH_5" name="TCP HEADER">
    <mxGraphModel dx="1061" dy="565" grid="1" gridSize="10" guides="1" tooltips="1" connect="1" arrows="1" fold="1" page="1" pageScale="1" pageWidth="850" pageHeight="1100" math="0" shadow="0">
      <root>
        <mxCell id="0" />
        <mxCell id="1" parent="0" />
        <mxCell id="UVG1YvNpKPb9V90L6Yqz-2" value="Порт источника" style="rounded=0;whiteSpace=wrap;html=1;fontSize=20;" parent="1" vertex="1">
          <mxGeometry x="360" y="370" width="360" height="80" as="geometry" />
        </mxCell>
        <mxCell id="UVG1YvNpKPb9V90L6Yqz-3" value="&lt;font style=&quot;font-size: 20px;&quot;&gt;Порт назначения&lt;/font&gt;" style="rounded=0;whiteSpace=wrap;html=1;" parent="1" vertex="1">
          <mxGeometry x="720" y="370" width="360" height="80" as="geometry" />
        </mxCell>
        <mxCell id="UVG1YvNpKPb9V90L6Yqz-4" value="&lt;font style=&quot;font-size: 20px;&quot;&gt;Номер последовательности&lt;/font&gt;" style="rounded=0;whiteSpace=wrap;html=1;" parent="1" vertex="1">
          <mxGeometry x="360" y="450" width="720" height="80" as="geometry" />
        </mxCell>
        <mxCell id="UVG1YvNpKPb9V90L6Yqz-5" value="&lt;font style=&quot;font-size: 20px;&quot;&gt;Номер подтверждения&lt;/font&gt;" style="rounded=0;whiteSpace=wrap;html=1;" parent="1" vertex="1">
          <mxGeometry x="360" y="530" width="720" height="80" as="geometry" />
        </mxCell>
        <mxCell id="UVG1YvNpKPb9V90L6Yqz-6" value="&lt;font style=&quot;font-size: 20px;&quot;&gt;Длина&lt;br&gt;заголовка&lt;/font&gt;" style="rounded=0;whiteSpace=wrap;html=1;" parent="1" vertex="1">
          <mxGeometry x="360" y="610" width="120" height="80" as="geometry" />
        </mxCell>
        <mxCell id="UVG1YvNpKPb9V90L6Yqz-7" value="Резерв" style="rounded=0;whiteSpace=wrap;html=1;fontSize=20;" parent="1" vertex="1">
          <mxGeometry x="480" y="610" width="120" height="80" as="geometry" />
        </mxCell>
        <mxCell id="UVG1YvNpKPb9V90L6Yqz-8" value="&lt;font style=&quot;font-size: 20px;&quot;&gt;Флаги&lt;/font&gt;" style="rounded=0;whiteSpace=wrap;html=1;" parent="1" vertex="1">
          <mxGeometry x="600" y="610" width="120" height="80" as="geometry" />
        </mxCell>
        <mxCell id="UVG1YvNpKPb9V90L6Yqz-9" value="&lt;font style=&quot;font-size: 20px;&quot;&gt;Размер окна&lt;/font&gt;" style="rounded=0;whiteSpace=wrap;html=1;" parent="1" vertex="1">
          <mxGeometry x="720" y="610" width="360" height="80" as="geometry" />
        </mxCell>
        <mxCell id="UVG1YvNpKPb9V90L6Yqz-10" value="Контрольная сумма" style="rounded=0;whiteSpace=wrap;html=1;fontSize=20;" parent="1" vertex="1">
          <mxGeometry x="360" y="690" width="360" height="80" as="geometry" />
        </mxCell>
        <mxCell id="UVG1YvNpKPb9V90L6Yqz-11" value="&lt;font style=&quot;font-size: 20px;&quot;&gt;Указатель важности&lt;/font&gt;" style="rounded=0;whiteSpace=wrap;html=1;" parent="1" vertex="1">
          <mxGeometry x="720" y="690" width="360" height="80" as="geometry" />
        </mxCell>
        <mxCell id="UVG1YvNpKPb9V90L6Yqz-14" value="&lt;font style=&quot;font-size: 20px;&quot;&gt;Опции&lt;/font&gt;" style="rounded=0;whiteSpace=wrap;html=1;" parent="1" vertex="1">
          <mxGeometry x="360" y="770" width="720" height="80" as="geometry" />
        </mxCell>
      </root>
    </mxGraphModel>
  </diagram>
  <diagram id="Z6-Xzx7sRfKc3_0q6U_V" name="Квитирование">
    <mxGraphModel dx="589" dy="314" grid="1" gridSize="10" guides="1" tooltips="1" connect="1" arrows="1" fold="1" page="1" pageScale="1" pageWidth="850" pageHeight="1100" math="0" shadow="0">
      <root>
        <mxCell id="0" />
        <mxCell id="1" parent="0" />
        <mxCell id="w_xAo2c2rzF4JFYeJpAn-2" value="Клиент" style="text;html=1;align=center;verticalAlign=middle;resizable=0;points=[];autosize=1;strokeColor=none;fillColor=none;fontSize=36;" parent="1" vertex="1">
          <mxGeometry x="165" y="410" width="150" height="60" as="geometry" />
        </mxCell>
        <mxCell id="w_xAo2c2rzF4JFYeJpAn-6" value="" style="sketch=0;pointerEvents=1;shadow=0;dashed=0;html=1;strokeColor=none;fillColor=#505050;labelPosition=center;verticalLabelPosition=bottom;verticalAlign=top;outlineConnect=0;align=center;shape=mxgraph.office.servers.server_generic;" parent="1" vertex="1">
          <mxGeometry x="990" y="110" width="180" height="300" as="geometry" />
        </mxCell>
        <mxCell id="w_xAo2c2rzF4JFYeJpAn-7" value="" style="sketch=0;pointerEvents=1;shadow=0;dashed=0;html=1;strokeColor=none;fillColor=#505050;labelPosition=center;verticalLabelPosition=bottom;verticalAlign=top;outlineConnect=0;align=center;shape=mxgraph.office.users.user;" parent="1" vertex="1">
          <mxGeometry x="140" y="160" width="200" height="240" as="geometry" />
        </mxCell>
        <mxCell id="w_xAo2c2rzF4JFYeJpAn-8" value="Сервер" style="text;html=1;align=center;verticalAlign=middle;resizable=0;points=[];autosize=1;strokeColor=none;fillColor=none;fontSize=36;" parent="1" vertex="1">
          <mxGeometry x="1005" y="410" width="150" height="60" as="geometry" />
        </mxCell>
        <mxCell id="w_xAo2c2rzF4JFYeJpAn-9" value="" style="endArrow=none;html=1;rounded=0;strokeWidth=5;" parent="1" edge="1">
          <mxGeometry width="50" height="50" relative="1" as="geometry">
            <mxPoint x="240" y="480" as="sourcePoint" />
            <mxPoint x="240" y="970" as="targetPoint" />
          </mxGeometry>
        </mxCell>
        <mxCell id="w_xAo2c2rzF4JFYeJpAn-10" value="" style="endArrow=none;html=1;rounded=0;strokeWidth=5;" parent="1" edge="1">
          <mxGeometry width="50" height="50" relative="1" as="geometry">
            <mxPoint x="1080" y="480" as="sourcePoint" />
            <mxPoint x="1080" y="970" as="targetPoint" />
          </mxGeometry>
        </mxCell>
        <mxCell id="w_xAo2c2rzF4JFYeJpAn-11" value="" style="endArrow=classic;html=1;rounded=0;strokeWidth=3;dashed=1;" parent="1" edge="1">
          <mxGeometry width="50" height="50" relative="1" as="geometry">
            <mxPoint x="350" y="610" as="sourcePoint" />
            <mxPoint x="990" y="610" as="targetPoint" />
          </mxGeometry>
        </mxCell>
        <mxCell id="w_xAo2c2rzF4JFYeJpAn-14" value="SYN = 1" style="text;html=1;align=center;verticalAlign=middle;resizable=0;points=[];autosize=1;strokeColor=none;fillColor=none;fontSize=36;rotation=0;" parent="1" vertex="1">
          <mxGeometry x="460" y="520" width="160" height="60" as="geometry" />
        </mxCell>
        <mxCell id="w_xAo2c2rzF4JFYeJpAn-15" value="ACK = 0" style="text;html=1;align=center;verticalAlign=middle;resizable=0;points=[];autosize=1;strokeColor=none;fillColor=none;fontSize=36;rotation=0;" parent="1" vertex="1">
          <mxGeometry x="650" y="520" width="160" height="60" as="geometry" />
        </mxCell>
        <mxCell id="w_xAo2c2rzF4JFYeJpAn-16" value="" style="endArrow=classic;html=1;rounded=0;strokeWidth=3;dashed=1;" parent="1" edge="1">
          <mxGeometry width="50" height="50" relative="1" as="geometry">
            <mxPoint x="990" y="740" as="sourcePoint" />
            <mxPoint x="350" y="740" as="targetPoint" />
          </mxGeometry>
        </mxCell>
        <mxCell id="w_xAo2c2rzF4JFYeJpAn-17" value="SYN = 1" style="text;html=1;align=center;verticalAlign=middle;resizable=0;points=[];autosize=1;strokeColor=none;fillColor=none;fontSize=36;rotation=0;" parent="1" vertex="1">
          <mxGeometry x="460" y="650" width="160" height="60" as="geometry" />
        </mxCell>
        <mxCell id="w_xAo2c2rzF4JFYeJpAn-18" value="ACK = 1" style="text;html=1;align=center;verticalAlign=middle;resizable=0;points=[];autosize=1;strokeColor=none;fillColor=none;fontSize=36;rotation=0;" parent="1" vertex="1">
          <mxGeometry x="650" y="650" width="160" height="60" as="geometry" />
        </mxCell>
        <mxCell id="w_xAo2c2rzF4JFYeJpAn-19" value="" style="endArrow=classic;html=1;rounded=0;strokeWidth=3;dashed=1;" parent="1" edge="1">
          <mxGeometry width="50" height="50" relative="1" as="geometry">
            <mxPoint x="350" y="870" as="sourcePoint" />
            <mxPoint x="990" y="870" as="targetPoint" />
          </mxGeometry>
        </mxCell>
        <mxCell id="w_xAo2c2rzF4JFYeJpAn-20" value="SYN = 0" style="text;html=1;align=center;verticalAlign=middle;resizable=0;points=[];autosize=1;strokeColor=none;fillColor=none;fontSize=36;rotation=0;" parent="1" vertex="1">
          <mxGeometry x="460" y="780" width="160" height="60" as="geometry" />
        </mxCell>
        <mxCell id="w_xAo2c2rzF4JFYeJpAn-21" value="ACK = 1" style="text;html=1;align=center;verticalAlign=middle;resizable=0;points=[];autosize=1;strokeColor=none;fillColor=none;fontSize=36;rotation=0;" parent="1" vertex="1">
          <mxGeometry x="650" y="780" width="160" height="60" as="geometry" />
        </mxCell>
      </root>
    </mxGraphModel>
  </diagram>
  <diagram id="TVr-csL4BwjnFLkzh2jK" name="IP HEADER">
    <mxGraphModel dx="1061" dy="565" grid="1" gridSize="10" guides="1" tooltips="1" connect="1" arrows="1" fold="1" page="1" pageScale="1" pageWidth="850" pageHeight="1100" math="0" shadow="0">
      <root>
        <mxCell id="0" />
        <mxCell id="1" parent="0" />
        <mxCell id="hTvQDKJDyxvs49uS663r-1" value="&lt;font style=&quot;font-size: 20px;&quot;&gt;Адрес источника&lt;/font&gt;" style="rounded=0;whiteSpace=wrap;html=1;" parent="1" vertex="1">
          <mxGeometry x="360" y="690" width="720" height="80" as="geometry" />
        </mxCell>
        <mxCell id="kVbBWQfra5dAcnuok6WG-1" value="&lt;span style=&quot;font-size: 20px;&quot;&gt;Номер версии&lt;/span&gt;" style="rounded=0;whiteSpace=wrap;html=1;" parent="1" vertex="1">
          <mxGeometry x="360" y="450" width="120" height="80" as="geometry" />
        </mxCell>
        <mxCell id="kVbBWQfra5dAcnuok6WG-2" value="&lt;span style=&quot;font-size: 20px;&quot;&gt;Длина&lt;br&gt;заголовка&lt;/span&gt;" style="rounded=0;whiteSpace=wrap;html=1;" parent="1" vertex="1">
          <mxGeometry x="480" y="450" width="120" height="80" as="geometry" />
        </mxCell>
        <mxCell id="kVbBWQfra5dAcnuok6WG-3" value="&lt;span style=&quot;font-size: 20px;&quot;&gt;Тип &lt;br&gt;сервиса&lt;/span&gt;" style="rounded=0;whiteSpace=wrap;html=1;" parent="1" vertex="1">
          <mxGeometry x="600" y="450" width="120" height="80" as="geometry" />
        </mxCell>
        <mxCell id="kX9HxQX4iyK3KybRTfHv-1" value="&lt;font style=&quot;font-size: 20px;&quot;&gt;Длина пакета&lt;/font&gt;" style="rounded=0;whiteSpace=wrap;html=1;" parent="1" vertex="1">
          <mxGeometry x="720" y="450" width="360" height="80" as="geometry" />
        </mxCell>
        <mxCell id="kX9HxQX4iyK3KybRTfHv-2" value="&lt;font style=&quot;font-size: 20px;&quot;&gt;ID пакета&lt;/font&gt;" style="rounded=0;whiteSpace=wrap;html=1;" parent="1" vertex="1">
          <mxGeometry x="360" y="530" width="360" height="80" as="geometry" />
        </mxCell>
        <mxCell id="kX9HxQX4iyK3KybRTfHv-3" value="&lt;span style=&quot;font-size: 20px;&quot;&gt;Флаги&lt;/span&gt;" style="rounded=0;whiteSpace=wrap;html=1;" parent="1" vertex="1">
          <mxGeometry x="720" y="530" width="120" height="80" as="geometry" />
        </mxCell>
        <mxCell id="kX9HxQX4iyK3KybRTfHv-4" value="&lt;span style=&quot;font-size: 20px;&quot;&gt;Указатель&lt;br&gt;фрагмента&lt;br&gt;&lt;/span&gt;" style="rounded=0;whiteSpace=wrap;html=1;" parent="1" vertex="1">
          <mxGeometry x="840" y="530" width="240" height="80" as="geometry" />
        </mxCell>
        <mxCell id="kX9HxQX4iyK3KybRTfHv-5" value="&lt;span style=&quot;font-size: 20px;&quot;&gt;Время жизни пакета&lt;br&gt;&lt;/span&gt;" style="rounded=0;whiteSpace=wrap;html=1;" parent="1" vertex="1">
          <mxGeometry x="360" y="610" width="240" height="80" as="geometry" />
        </mxCell>
        <mxCell id="kX9HxQX4iyK3KybRTfHv-6" value="&lt;span style=&quot;font-size: 20px;&quot;&gt;Протокол&lt;/span&gt;" style="rounded=0;whiteSpace=wrap;html=1;" parent="1" vertex="1">
          <mxGeometry x="600" y="610" width="120" height="80" as="geometry" />
        </mxCell>
        <mxCell id="kX9HxQX4iyK3KybRTfHv-7" value="&lt;font style=&quot;font-size: 20px;&quot;&gt;Контрольная сумма&lt;/font&gt;" style="rounded=0;whiteSpace=wrap;html=1;" parent="1" vertex="1">
          <mxGeometry x="720" y="610" width="360" height="80" as="geometry" />
        </mxCell>
        <mxCell id="kX9HxQX4iyK3KybRTfHv-8" value="&lt;font style=&quot;font-size: 20px;&quot;&gt;Адрес назначения&lt;/font&gt;" style="rounded=0;whiteSpace=wrap;html=1;" parent="1" vertex="1">
          <mxGeometry x="360" y="770" width="720" height="80" as="geometry" />
        </mxCell>
        <mxCell id="kX9HxQX4iyK3KybRTfHv-9" value="&lt;font style=&quot;font-size: 20px;&quot;&gt;Опции&lt;/font&gt;" style="rounded=0;whiteSpace=wrap;html=1;" parent="1" vertex="1">
          <mxGeometry x="360" y="850" width="720" height="80" as="geometry" />
        </mxCell>
        <mxCell id="kX9HxQX4iyK3KybRTfHv-10" value="&lt;span style=&quot;font-size: 20px;&quot;&gt;Заполнитель&lt;/span&gt;" style="rounded=0;whiteSpace=wrap;html=1;" parent="1" vertex="1">
          <mxGeometry x="940" y="890" width="140" height="40" as="geometry" />
        </mxCell>
      </root>
    </mxGraphModel>
  </diagram>
  <diagram id="Tgu1DgPD2-Ldj14S_kg_" name="DDoS">
    <mxGraphModel dx="1911" dy="2765" grid="1" gridSize="10" guides="1" tooltips="1" connect="1" arrows="1" fold="1" page="1" pageScale="1" pageWidth="850" pageHeight="1100" math="0" shadow="0">
      <root>
        <mxCell id="0" />
        <mxCell id="1" parent="0" />
        <mxCell id="0MiTgzJyEO1d9Kp8SRaU-13" style="rounded=0;orthogonalLoop=1;jettySize=auto;html=1;strokeWidth=5;dashed=1;" parent="1" source="0MiTgzJyEO1d9Kp8SRaU-2" target="0MiTgzJyEO1d9Kp8SRaU-9" edge="1">
          <mxGeometry relative="1" as="geometry" />
        </mxCell>
        <mxCell id="0MiTgzJyEO1d9Kp8SRaU-18" style="edgeStyle=none;rounded=0;orthogonalLoop=1;jettySize=auto;html=1;strokeWidth=5;dashed=1;" parent="1" source="0MiTgzJyEO1d9Kp8SRaU-2" target="0MiTgzJyEO1d9Kp8SRaU-10" edge="1">
          <mxGeometry relative="1" as="geometry">
            <mxPoint x="980" y="50" as="targetPoint" />
          </mxGeometry>
        </mxCell>
        <mxCell id="0MiTgzJyEO1d9Kp8SRaU-21" style="edgeStyle=none;rounded=0;orthogonalLoop=1;jettySize=auto;html=1;strokeWidth=5;dashed=1;" parent="1" source="0MiTgzJyEO1d9Kp8SRaU-2" target="0MiTgzJyEO1d9Kp8SRaU-11" edge="1">
          <mxGeometry relative="1" as="geometry" />
        </mxCell>
        <mxCell id="0MiTgzJyEO1d9Kp8SRaU-22" style="edgeStyle=none;rounded=0;orthogonalLoop=1;jettySize=auto;html=1;strokeWidth=5;dashed=1;" parent="1" source="0MiTgzJyEO1d9Kp8SRaU-2" target="0MiTgzJyEO1d9Kp8SRaU-12" edge="1">
          <mxGeometry relative="1" as="geometry" />
        </mxCell>
        <mxCell id="0MiTgzJyEO1d9Kp8SRaU-23" style="edgeStyle=none;rounded=0;orthogonalLoop=1;jettySize=auto;html=1;strokeWidth=5;dashed=1;" parent="1" source="0MiTgzJyEO1d9Kp8SRaU-2" target="0MiTgzJyEO1d9Kp8SRaU-7" edge="1">
          <mxGeometry relative="1" as="geometry" />
        </mxCell>
        <mxCell id="0MiTgzJyEO1d9Kp8SRaU-2" value="" style="image;points=[];aspect=fixed;html=1;align=center;shadow=0;dashed=0;image=img/lib/allied_telesis/computer_and_terminals/Personal_Computer_with_Server.svg;" parent="1" vertex="1">
          <mxGeometry x="70" y="100" width="300" height="300" as="geometry" />
        </mxCell>
        <mxCell id="0MiTgzJyEO1d9Kp8SRaU-3" value="" style="outlineConnect=0;dashed=0;verticalLabelPosition=bottom;verticalAlign=top;align=center;html=1;shape=mxgraph.aws3.traditional_server;fillColor=#7D7C7C;gradientColor=none;aspect=fixed;" parent="1" vertex="1">
          <mxGeometry x="2600" width="300" height="406.45" as="geometry" />
        </mxCell>
        <mxCell id="0MiTgzJyEO1d9Kp8SRaU-5" value="" style="image;points=[];aspect=fixed;html=1;align=center;shadow=0;dashed=0;image=img/lib/allied_telesis/computer_and_terminals/Personal_Computer_with_Server.svg;" parent="1" vertex="1">
          <mxGeometry x="1730" y="-189.99999999999997" width="300" height="300" as="geometry" />
        </mxCell>
        <mxCell id="0MiTgzJyEO1d9Kp8SRaU-6" value="" style="image;points=[];aspect=fixed;html=1;align=center;shadow=0;dashed=0;image=img/lib/allied_telesis/computer_and_terminals/Personal_Computer_with_Server.svg;" parent="1" vertex="1">
          <mxGeometry x="1750" y="620" width="300" height="300" as="geometry" />
        </mxCell>
        <mxCell id="0MiTgzJyEO1d9Kp8SRaU-7" value="" style="image;points=[];aspect=fixed;html=1;align=center;shadow=0;dashed=0;image=img/lib/allied_telesis/computer_and_terminals/Personal_Computer_with_Server.svg;" parent="1" vertex="1">
          <mxGeometry x="1730" y="-1080" width="300" height="300" as="geometry" />
        </mxCell>
        <mxCell id="0MiTgzJyEO1d9Kp8SRaU-8" value="" style="image;points=[];aspect=fixed;html=1;align=center;shadow=0;dashed=0;image=img/lib/allied_telesis/computer_and_terminals/Personal_Computer_with_Server.svg;" parent="1" vertex="1">
          <mxGeometry x="1750" y="1160" width="300" height="300" as="geometry" />
        </mxCell>
        <mxCell id="0MiTgzJyEO1d9Kp8SRaU-9" value="" style="image;points=[];aspect=fixed;html=1;align=center;shadow=0;dashed=0;image=img/lib/allied_telesis/computer_and_terminals/Personal_Computer_with_Server.svg;" parent="1" vertex="1">
          <mxGeometry x="1000" y="-1000" width="300" height="300" as="geometry" />
        </mxCell>
        <mxCell id="0MiTgzJyEO1d9Kp8SRaU-10" value="" style="image;points=[];aspect=fixed;html=1;align=center;shadow=0;dashed=0;image=img/lib/allied_telesis/computer_and_terminals/Personal_Computer_with_Server.svg;" parent="1" vertex="1">
          <mxGeometry x="1000" y="-290" width="300" height="300" as="geometry" />
        </mxCell>
        <mxCell id="0MiTgzJyEO1d9Kp8SRaU-11" value="" style="image;points=[];aspect=fixed;html=1;align=center;shadow=0;dashed=0;image=img/lib/allied_telesis/computer_and_terminals/Personal_Computer_with_Server.svg;" parent="1" vertex="1">
          <mxGeometry x="1000" y="190" width="300" height="300" as="geometry" />
        </mxCell>
        <mxCell id="0MiTgzJyEO1d9Kp8SRaU-12" value="" style="image;points=[];aspect=fixed;html=1;align=center;shadow=0;dashed=0;image=img/lib/allied_telesis/computer_and_terminals/Personal_Computer_with_Server.svg;" parent="1" vertex="1">
          <mxGeometry x="1000" y="1040" width="300" height="300" as="geometry" />
        </mxCell>
        <mxCell id="0MiTgzJyEO1d9Kp8SRaU-25" style="edgeStyle=none;rounded=0;orthogonalLoop=1;jettySize=auto;html=1;entryX=-0.042;entryY=0.563;entryDx=0;entryDy=0;entryPerimeter=0;strokeWidth=5;dashed=1;" parent="1" source="0MiTgzJyEO1d9Kp8SRaU-2" target="0MiTgzJyEO1d9Kp8SRaU-5" edge="1">
          <mxGeometry relative="1" as="geometry" />
        </mxCell>
        <mxCell id="0MiTgzJyEO1d9Kp8SRaU-26" style="edgeStyle=none;rounded=0;orthogonalLoop=1;jettySize=auto;html=1;entryX=-0.025;entryY=0.015;entryDx=0;entryDy=0;entryPerimeter=0;strokeWidth=5;dashed=1;" parent="1" source="0MiTgzJyEO1d9Kp8SRaU-2" target="0MiTgzJyEO1d9Kp8SRaU-8" edge="1">
          <mxGeometry relative="1" as="geometry" />
        </mxCell>
        <mxCell id="0MiTgzJyEO1d9Kp8SRaU-27" style="edgeStyle=none;rounded=0;orthogonalLoop=1;jettySize=auto;html=1;entryX=-0.033;entryY=0.473;entryDx=0;entryDy=0;entryPerimeter=0;strokeWidth=5;dashed=1;" parent="1" source="0MiTgzJyEO1d9Kp8SRaU-2" target="0MiTgzJyEO1d9Kp8SRaU-6" edge="1">
          <mxGeometry relative="1" as="geometry" />
        </mxCell>
        <mxCell id="0MiTgzJyEO1d9Kp8SRaU-28" style="edgeStyle=none;rounded=0;orthogonalLoop=1;jettySize=auto;html=1;entryX=0;entryY=0.5;entryDx=0;entryDy=0;entryPerimeter=0;strokeWidth=5;" parent="1" source="0MiTgzJyEO1d9Kp8SRaU-7" target="0MiTgzJyEO1d9Kp8SRaU-3" edge="1">
          <mxGeometry relative="1" as="geometry" />
        </mxCell>
        <mxCell id="0MiTgzJyEO1d9Kp8SRaU-29" style="edgeStyle=none;rounded=0;orthogonalLoop=1;jettySize=auto;html=1;entryX=0;entryY=0.5;entryDx=0;entryDy=0;entryPerimeter=0;strokeWidth=5;" parent="1" source="0MiTgzJyEO1d9Kp8SRaU-9" target="0MiTgzJyEO1d9Kp8SRaU-3" edge="1">
          <mxGeometry relative="1" as="geometry" />
        </mxCell>
        <mxCell id="0MiTgzJyEO1d9Kp8SRaU-30" style="edgeStyle=none;rounded=0;orthogonalLoop=1;jettySize=auto;html=1;entryX=0;entryY=0.5;entryDx=0;entryDy=0;entryPerimeter=0;strokeWidth=5;" parent="1" source="0MiTgzJyEO1d9Kp8SRaU-10" target="0MiTgzJyEO1d9Kp8SRaU-3" edge="1">
          <mxGeometry relative="1" as="geometry" />
        </mxCell>
        <mxCell id="0MiTgzJyEO1d9Kp8SRaU-31" style="edgeStyle=none;rounded=0;orthogonalLoop=1;jettySize=auto;html=1;entryX=0;entryY=0.5;entryDx=0;entryDy=0;entryPerimeter=0;strokeWidth=5;" parent="1" source="0MiTgzJyEO1d9Kp8SRaU-5" target="0MiTgzJyEO1d9Kp8SRaU-3" edge="1">
          <mxGeometry relative="1" as="geometry" />
        </mxCell>
        <mxCell id="0MiTgzJyEO1d9Kp8SRaU-32" style="edgeStyle=none;rounded=0;orthogonalLoop=1;jettySize=auto;html=1;entryX=0;entryY=0.5;entryDx=0;entryDy=0;entryPerimeter=0;strokeWidth=5;" parent="1" source="0MiTgzJyEO1d9Kp8SRaU-11" target="0MiTgzJyEO1d9Kp8SRaU-3" edge="1">
          <mxGeometry relative="1" as="geometry" />
        </mxCell>
        <mxCell id="0MiTgzJyEO1d9Kp8SRaU-33" style="edgeStyle=none;rounded=0;orthogonalLoop=1;jettySize=auto;html=1;entryX=0;entryY=0.5;entryDx=0;entryDy=0;entryPerimeter=0;strokeWidth=5;" parent="1" source="0MiTgzJyEO1d9Kp8SRaU-6" target="0MiTgzJyEO1d9Kp8SRaU-3" edge="1">
          <mxGeometry relative="1" as="geometry" />
        </mxCell>
        <mxCell id="0MiTgzJyEO1d9Kp8SRaU-34" style="edgeStyle=none;rounded=0;orthogonalLoop=1;jettySize=auto;html=1;entryX=0;entryY=0.5;entryDx=0;entryDy=0;entryPerimeter=0;strokeWidth=5;" parent="1" source="0MiTgzJyEO1d9Kp8SRaU-12" target="0MiTgzJyEO1d9Kp8SRaU-3" edge="1">
          <mxGeometry relative="1" as="geometry" />
        </mxCell>
        <mxCell id="0MiTgzJyEO1d9Kp8SRaU-35" style="edgeStyle=none;rounded=0;orthogonalLoop=1;jettySize=auto;html=1;entryX=0;entryY=0.5;entryDx=0;entryDy=0;entryPerimeter=0;strokeWidth=5;" parent="1" source="0MiTgzJyEO1d9Kp8SRaU-8" target="0MiTgzJyEO1d9Kp8SRaU-3" edge="1">
          <mxGeometry relative="1" as="geometry" />
        </mxCell>
        <mxCell id="0MiTgzJyEO1d9Kp8SRaU-36" value="" style="endArrow=none;dashed=1;html=1;rounded=0;strokeWidth=10;" parent="1" edge="1">
          <mxGeometry width="50" height="50" relative="1" as="geometry">
            <mxPoint x="620" y="1490" as="sourcePoint" />
            <mxPoint x="620" y="-1000" as="targetPoint" />
          </mxGeometry>
        </mxCell>
        <mxCell id="0MiTgzJyEO1d9Kp8SRaU-37" value="" style="endArrow=none;dashed=1;html=1;rounded=0;strokeWidth=10;" parent="1" edge="1">
          <mxGeometry width="50" height="50" relative="1" as="geometry">
            <mxPoint x="2410" y="1490" as="sourcePoint" />
            <mxPoint x="2410" y="-1000" as="targetPoint" />
          </mxGeometry>
        </mxCell>
        <mxCell id="0MiTgzJyEO1d9Kp8SRaU-38" value="Злоумышленник" style="text;html=1;align=center;verticalAlign=middle;resizable=0;points=[];autosize=1;strokeColor=none;fillColor=none;fontSize=72;" parent="1" vertex="1">
          <mxGeometry x="-200" y="490" width="590" height="100" as="geometry" />
        </mxCell>
        <mxCell id="0MiTgzJyEO1d9Kp8SRaU-39" value="Цель атаки" style="text;html=1;align=center;verticalAlign=middle;resizable=0;points=[];autosize=1;strokeColor=none;fillColor=none;fontSize=72;" parent="1" vertex="1">
          <mxGeometry x="2600" y="490" width="410" height="100" as="geometry" />
        </mxCell>
        <mxCell id="0MiTgzJyEO1d9Kp8SRaU-40" value="&quot;Зомби&quot;" style="text;html=1;align=center;verticalAlign=middle;resizable=0;points=[];autosize=1;strokeColor=none;fillColor=none;fontSize=72;" parent="1" vertex="1">
          <mxGeometry x="1390" y="-1290" width="290" height="100" as="geometry" />
        </mxCell>
      </root>
    </mxGraphModel>
  </diagram>
  <diagram id="k-cAwibKkPMkyJt3Ipc8" name="Страница — 11">
    <mxGraphModel dx="1326" dy="706" grid="1" gridSize="10" guides="1" tooltips="1" connect="1" arrows="1" fold="1" page="1" pageScale="1" pageWidth="827" pageHeight="1169" math="0" shadow="0">
      <root>
        <mxCell id="0" />
        <mxCell id="1" parent="0" />
        <mxCell id="DvQd8c22lQpo4Lemiom6-6" style="edgeStyle=orthogonalEdgeStyle;rounded=0;orthogonalLoop=1;jettySize=auto;html=1;exitX=0.5;exitY=1;exitDx=0;exitDy=0;entryX=0.5;entryY=0;entryDx=0;entryDy=0;endArrow=none;endFill=0;dashed=1;" edge="1" parent="1" source="DvQd8c22lQpo4Lemiom6-2" target="DvQd8c22lQpo4Lemiom6-3">
          <mxGeometry relative="1" as="geometry" />
        </mxCell>
        <mxCell id="DvQd8c22lQpo4Lemiom6-2" value="Client" style="rounded=1;whiteSpace=wrap;html=1;" vertex="1" parent="1">
          <mxGeometry x="200" y="50" width="120" height="60" as="geometry" />
        </mxCell>
        <mxCell id="DvQd8c22lQpo4Lemiom6-7" style="edgeStyle=orthogonalEdgeStyle;rounded=0;orthogonalLoop=1;jettySize=auto;html=1;exitX=0.5;exitY=1;exitDx=0;exitDy=0;dashed=1;endArrow=none;endFill=0;" edge="1" parent="1" source="DvQd8c22lQpo4Lemiom6-3" target="DvQd8c22lQpo4Lemiom6-4">
          <mxGeometry relative="1" as="geometry" />
        </mxCell>
        <mxCell id="DvQd8c22lQpo4Lemiom6-3" value="connect()" style="rounded=1;whiteSpace=wrap;html=1;" vertex="1" parent="1">
          <mxGeometry x="200" y="240" width="120" height="60" as="geometry" />
        </mxCell>
        <mxCell id="DvQd8c22lQpo4Lemiom6-50" style="edgeStyle=orthogonalEdgeStyle;rounded=0;orthogonalLoop=1;jettySize=auto;html=1;exitX=0.5;exitY=1;exitDx=0;exitDy=0;dashed=1;endArrow=none;endFill=0;" edge="1" parent="1" source="DvQd8c22lQpo4Lemiom6-4">
          <mxGeometry relative="1" as="geometry">
            <mxPoint x="260.25" y="920.0000000000002" as="targetPoint" />
          </mxGeometry>
        </mxCell>
        <mxCell id="DvQd8c22lQpo4Lemiom6-4" value="write()" style="rounded=1;whiteSpace=wrap;html=1;" vertex="1" parent="1">
          <mxGeometry x="200" y="740" width="120" height="60" as="geometry" />
        </mxCell>
        <mxCell id="DvQd8c22lQpo4Lemiom6-15" style="edgeStyle=orthogonalEdgeStyle;rounded=0;orthogonalLoop=1;jettySize=auto;html=1;exitX=0.5;exitY=1;exitDx=0;exitDy=0;endArrow=none;endFill=0;dashed=1;" edge="1" parent="1" source="DvQd8c22lQpo4Lemiom6-8" target="DvQd8c22lQpo4Lemiom6-9">
          <mxGeometry relative="1" as="geometry" />
        </mxCell>
        <mxCell id="DvQd8c22lQpo4Lemiom6-8" value="Server" style="rounded=1;whiteSpace=wrap;html=1;" vertex="1" parent="1">
          <mxGeometry x="560" y="50" width="120" height="60" as="geometry" />
        </mxCell>
        <mxCell id="DvQd8c22lQpo4Lemiom6-16" style="edgeStyle=orthogonalEdgeStyle;rounded=0;orthogonalLoop=1;jettySize=auto;html=1;exitX=0.5;exitY=1;exitDx=0;exitDy=0;endArrow=none;endFill=0;dashed=1;" edge="1" parent="1" source="DvQd8c22lQpo4Lemiom6-9" target="DvQd8c22lQpo4Lemiom6-10">
          <mxGeometry relative="1" as="geometry" />
        </mxCell>
        <mxCell id="DvQd8c22lQpo4Lemiom6-9" value="bind()" style="rounded=1;whiteSpace=wrap;html=1;" vertex="1" parent="1">
          <mxGeometry x="560" y="130" width="120" height="60" as="geometry" />
        </mxCell>
        <mxCell id="DvQd8c22lQpo4Lemiom6-17" style="edgeStyle=orthogonalEdgeStyle;rounded=0;orthogonalLoop=1;jettySize=auto;html=1;exitX=0.5;exitY=1;exitDx=0;exitDy=0;endArrow=none;endFill=0;dashed=1;" edge="1" parent="1" source="DvQd8c22lQpo4Lemiom6-10" target="DvQd8c22lQpo4Lemiom6-12">
          <mxGeometry relative="1" as="geometry" />
        </mxCell>
        <mxCell id="DvQd8c22lQpo4Lemiom6-10" value="listen()" style="rounded=1;whiteSpace=wrap;html=1;" vertex="1" parent="1">
          <mxGeometry x="560" y="210" width="120" height="60" as="geometry" />
        </mxCell>
        <mxCell id="DvQd8c22lQpo4Lemiom6-19" style="rounded=0;orthogonalLoop=1;jettySize=auto;html=1;exitX=1;exitY=0.5;exitDx=0;exitDy=0;entryX=0.015;entryY=0.366;entryDx=0;entryDy=0;entryPerimeter=0;" edge="1" parent="1" source="DvQd8c22lQpo4Lemiom6-11" target="DvQd8c22lQpo4Lemiom6-18">
          <mxGeometry relative="1" as="geometry" />
        </mxCell>
        <mxCell id="DvQd8c22lQpo4Lemiom6-11" value="SYN_SENT" style="rounded=0;whiteSpace=wrap;html=1;" vertex="1" parent="1">
          <mxGeometry x="264" y="320" width="80" height="30" as="geometry" />
        </mxCell>
        <mxCell id="DvQd8c22lQpo4Lemiom6-49" style="edgeStyle=orthogonalEdgeStyle;rounded=0;orthogonalLoop=1;jettySize=auto;html=1;exitX=0.5;exitY=1;exitDx=0;exitDy=0;dashed=1;endArrow=none;endFill=0;" edge="1" parent="1" source="DvQd8c22lQpo4Lemiom6-12" target="DvQd8c22lQpo4Lemiom6-48">
          <mxGeometry relative="1" as="geometry" />
        </mxCell>
        <mxCell id="DvQd8c22lQpo4Lemiom6-12" value="accept()" style="rounded=1;whiteSpace=wrap;html=1;" vertex="1" parent="1">
          <mxGeometry x="560" y="660" width="120" height="60" as="geometry" />
        </mxCell>
        <mxCell id="DvQd8c22lQpo4Lemiom6-22" style="rounded=0;orthogonalLoop=1;jettySize=auto;html=1;exitX=0;exitY=0.75;exitDx=0;exitDy=0;entryX=1;entryY=0.25;entryDx=0;entryDy=0;" edge="1" parent="1" source="DvQd8c22lQpo4Lemiom6-18" target="DvQd8c22lQpo4Lemiom6-21">
          <mxGeometry relative="1" as="geometry" />
        </mxCell>
        <mxCell id="DvQd8c22lQpo4Lemiom6-39" style="edgeStyle=orthogonalEdgeStyle;rounded=0;orthogonalLoop=1;jettySize=auto;html=1;exitX=1;exitY=0.5;exitDx=0;exitDy=0;entryX=0.25;entryY=0;entryDx=0;entryDy=0;curved=1;" edge="1" parent="1" source="DvQd8c22lQpo4Lemiom6-18" target="DvQd8c22lQpo4Lemiom6-32">
          <mxGeometry relative="1" as="geometry">
            <mxPoint x="690" y="320" as="targetPoint" />
          </mxGeometry>
        </mxCell>
        <mxCell id="DvQd8c22lQpo4Lemiom6-18" value="SYN_RECV" style="rounded=0;whiteSpace=wrap;html=1;" vertex="1" parent="1">
          <mxGeometry x="535" y="350" width="80" height="30" as="geometry" />
        </mxCell>
        <mxCell id="DvQd8c22lQpo4Lemiom6-20" value="SYN" style="text;html=1;align=center;verticalAlign=middle;resizable=0;points=[];autosize=1;strokeColor=none;fillColor=none;rotation=9;" vertex="1" parent="1">
          <mxGeometry x="416" y="325" width="50" height="30" as="geometry" />
        </mxCell>
        <mxCell id="DvQd8c22lQpo4Lemiom6-25" style="rounded=0;orthogonalLoop=1;jettySize=auto;html=1;exitX=1;exitY=0.75;exitDx=0;exitDy=0;entryX=0;entryY=0.5;entryDx=0;entryDy=0;" edge="1" parent="1" source="DvQd8c22lQpo4Lemiom6-21" target="DvQd8c22lQpo4Lemiom6-24">
          <mxGeometry relative="1" as="geometry" />
        </mxCell>
        <mxCell id="DvQd8c22lQpo4Lemiom6-21" value="ESTABLISHED" style="rounded=0;whiteSpace=wrap;html=1;" vertex="1" parent="1">
          <mxGeometry x="264" y="410" width="86" height="30" as="geometry" />
        </mxCell>
        <mxCell id="DvQd8c22lQpo4Lemiom6-23" value="SYN + ACK" style="text;html=1;align=center;verticalAlign=middle;resizable=0;points=[];autosize=1;strokeColor=none;fillColor=none;rotation=346;" vertex="1" parent="1">
          <mxGeometry x="386" y="373" width="90" height="30" as="geometry" />
        </mxCell>
        <mxCell id="DvQd8c22lQpo4Lemiom6-46" style="edgeStyle=orthogonalEdgeStyle;rounded=0;orthogonalLoop=1;jettySize=auto;html=1;exitX=1;exitY=0.5;exitDx=0;exitDy=0;entryX=0.25;entryY=0;entryDx=0;entryDy=0;curved=1;" edge="1" parent="1" source="DvQd8c22lQpo4Lemiom6-24" target="DvQd8c22lQpo4Lemiom6-41">
          <mxGeometry relative="1" as="geometry" />
        </mxCell>
        <mxCell id="DvQd8c22lQpo4Lemiom6-24" value="ESTABLISHED" style="rounded=0;whiteSpace=wrap;html=1;" vertex="1" parent="1">
          <mxGeometry x="529" y="445" width="86" height="30" as="geometry" />
        </mxCell>
        <mxCell id="DvQd8c22lQpo4Lemiom6-26" value="ACK" style="text;html=1;align=center;verticalAlign=middle;resizable=0;points=[];autosize=1;strokeColor=none;fillColor=none;rotation=8;" vertex="1" parent="1">
          <mxGeometry x="417" y="420" width="50" height="30" as="geometry" />
        </mxCell>
        <mxCell id="DvQd8c22lQpo4Lemiom6-32" value="" style="rounded=0;whiteSpace=wrap;html=1;" vertex="1" parent="1">
          <mxGeometry x="719" y="320" width="111" height="120" as="geometry" />
        </mxCell>
        <mxCell id="DvQd8c22lQpo4Lemiom6-40" style="edgeStyle=orthogonalEdgeStyle;rounded=0;orthogonalLoop=1;jettySize=auto;html=1;exitX=0.5;exitY=1;exitDx=0;exitDy=0;entryX=1;entryY=0.5;entryDx=0;entryDy=0;curved=1;" edge="1" parent="1" source="DvQd8c22lQpo4Lemiom6-33" target="DvQd8c22lQpo4Lemiom6-24">
          <mxGeometry relative="1" as="geometry" />
        </mxCell>
        <mxCell id="DvQd8c22lQpo4Lemiom6-33" value="" style="rounded=0;whiteSpace=wrap;html=1;" vertex="1" parent="1">
          <mxGeometry x="719" y="415" width="111" height="25" as="geometry" />
        </mxCell>
        <mxCell id="DvQd8c22lQpo4Lemiom6-36" value="" style="rounded=0;whiteSpace=wrap;html=1;" vertex="1" parent="1">
          <mxGeometry x="719" y="390" width="111" height="25" as="geometry" />
        </mxCell>
        <mxCell id="DvQd8c22lQpo4Lemiom6-37" value="" style="rounded=0;whiteSpace=wrap;html=1;" vertex="1" parent="1">
          <mxGeometry x="719" y="365" width="111" height="25" as="geometry" />
        </mxCell>
        <mxCell id="DvQd8c22lQpo4Lemiom6-38" value="SYN queue" style="text;html=1;align=center;verticalAlign=middle;resizable=0;points=[];autosize=1;strokeColor=none;fillColor=none;rotation=0;" vertex="1" parent="1">
          <mxGeometry x="757" y="294" width="80" height="30" as="geometry" />
        </mxCell>
        <mxCell id="DvQd8c22lQpo4Lemiom6-41" value="" style="rounded=0;whiteSpace=wrap;html=1;" vertex="1" parent="1">
          <mxGeometry x="719" y="520" width="111" height="120" as="geometry" />
        </mxCell>
        <mxCell id="DvQd8c22lQpo4Lemiom6-47" style="edgeStyle=orthogonalEdgeStyle;rounded=0;orthogonalLoop=1;jettySize=auto;html=1;exitX=0.5;exitY=1;exitDx=0;exitDy=0;entryX=1;entryY=0.5;entryDx=0;entryDy=0;endArrow=classic;endFill=1;curved=1;" edge="1" parent="1" source="DvQd8c22lQpo4Lemiom6-42" target="DvQd8c22lQpo4Lemiom6-12">
          <mxGeometry relative="1" as="geometry" />
        </mxCell>
        <mxCell id="DvQd8c22lQpo4Lemiom6-42" value="" style="rounded=0;whiteSpace=wrap;html=1;" vertex="1" parent="1">
          <mxGeometry x="719" y="615" width="111" height="25" as="geometry" />
        </mxCell>
        <mxCell id="DvQd8c22lQpo4Lemiom6-43" value="" style="rounded=0;whiteSpace=wrap;html=1;" vertex="1" parent="1">
          <mxGeometry x="719" y="590" width="111" height="25" as="geometry" />
        </mxCell>
        <mxCell id="DvQd8c22lQpo4Lemiom6-44" value="" style="rounded=0;whiteSpace=wrap;html=1;" vertex="1" parent="1">
          <mxGeometry x="719" y="565" width="111" height="25" as="geometry" />
        </mxCell>
        <mxCell id="DvQd8c22lQpo4Lemiom6-45" value="Accept queue" style="text;html=1;align=center;verticalAlign=middle;resizable=0;points=[];autosize=1;strokeColor=none;fillColor=none;rotation=0;" vertex="1" parent="1">
          <mxGeometry x="750" y="490" width="100" height="30" as="geometry" />
        </mxCell>
        <mxCell id="DvQd8c22lQpo4Lemiom6-51" style="edgeStyle=orthogonalEdgeStyle;rounded=0;orthogonalLoop=1;jettySize=auto;html=1;exitX=0.5;exitY=1;exitDx=0;exitDy=0;endArrow=classic;endFill=1;" edge="1" parent="1" source="DvQd8c22lQpo4Lemiom6-48">
          <mxGeometry relative="1" as="geometry">
            <mxPoint x="620.25" y="940.0000000000002" as="targetPoint" />
          </mxGeometry>
        </mxCell>
        <mxCell id="DvQd8c22lQpo4Lemiom6-48" value="read()" style="rounded=1;whiteSpace=wrap;html=1;" vertex="1" parent="1">
          <mxGeometry x="560" y="790" width="120" height="60" as="geometry" />
        </mxCell>
      </root>
    </mxGraphModel>
  </diagram>
</mxfile>
